<svg id="Layer_1" data-name="Layer 1" xmlns="http://www.w3.org/2000/svg" viewBox="0 0 1086.38 122.77"><defs><style>.cls-1{fill:#a32600;}.cls-2{fill:#152389;}.cls-3{fill:#009245;}</style></defs><path class="cls-1" d="M18.5,13.49h4.4V28.26a7.07,7.07,0,0,1-.9,3.6,6.12,6.12,0,0,1-2.55,2.41,8,8,0,0,1-3.7.85,7.5,7.5,0,0,1-5.27-1.73,6.24,6.24,0,0,1-1.89-4.87H13a3.44,3.44,0,0,0,.66,2.32,2.62,2.62,0,0,0,2.08.74,2.51,2.51,0,0,0,2-.86,3.71,3.71,0,0,0,.74-2.46Z" transform="translate(-8.59 -12.01)"/><path class="cls-1" d="M28.1,32.74a2.15,2.15,0,0,1,.68-1.64,2.65,2.65,0,0,1,3.43,0,2.11,2.11,0,0,1,.68,1.64,2.08,2.08,0,0,1-.67,1.62,2.43,2.43,0,0,1-1.73.62,2.4,2.4,0,0,1-1.71-.62A2.09,2.09,0,0,1,28.1,32.74Z" transform="translate(-8.59 -12.01)"/><path class="cls-1" d="M55.12,27.72a7.57,7.57,0,0,1-2.54,5.42,8.91,8.91,0,0,1-6,2,8,8,0,0,1-6.46-2.77,11.34,11.34,0,0,1-2.35-7.58v-1.3a12.67,12.67,0,0,1,1.09-5.42,8.12,8.12,0,0,1,3.1-3.6A8.71,8.71,0,0,1,46.6,13.2a8.66,8.66,0,0,1,5.94,2,8.07,8.07,0,0,1,2.61,5.55H50.76a4.52,4.52,0,0,0-1.15-3,4.27,4.27,0,0,0-3-.93,3.72,3.72,0,0,0-3.29,1.58,8.81,8.81,0,0,0-1.12,4.88v1.62a9.52,9.52,0,0,0,1,5.05,3.68,3.68,0,0,0,3.31,1.6,4.35,4.35,0,0,0,3-.93,4.21,4.21,0,0,0,1.15-2.88Z" transform="translate(-8.59 -12.01)"/><path class="cls-1" d="M59.45,32.74a2.11,2.11,0,0,1,.68-1.64,2.41,2.41,0,0,1,1.71-.63,2.45,2.45,0,0,1,1.72.63,2.15,2.15,0,0,1,.68,1.64,2.09,2.09,0,0,1-.68,1.62,2.7,2.7,0,0,1-3.44,0A2.08,2.08,0,0,1,59.45,32.74Z" transform="translate(-8.59 -12.01)"/><path class="cls-1" d="M78.69,34.82V13.49h7.47A9.82,9.82,0,0,1,92.05,15a5.08,5.08,0,0,1,2,4.36,4.82,4.82,0,0,1-.81,2.76A4.57,4.57,0,0,1,91,23.85a4.48,4.48,0,0,1,2.59,1.66,4.87,4.87,0,0,1,.94,3,5.62,5.62,0,0,1-2,4.66A8.81,8.81,0,0,1,87,34.82Zm4.4-12.39h3.25c2.22,0,3.32-.92,3.32-2.65a2.46,2.46,0,0,0-.84-2.09,4.47,4.47,0,0,0-2.66-.64H83.09Zm0,3.11v5.75h3.76a3.6,3.6,0,0,0,2.43-.74,2.53,2.53,0,0,0,.87-2c0-2-1-3-3-3Z" transform="translate(-8.59 -12.01)"/><path class="cls-1" d="M98.4,26.75a9.33,9.33,0,0,1,.91-4.2,6.64,6.64,0,0,1,2.61-2.86,7.68,7.68,0,0,1,4-1,7.2,7.2,0,0,1,5.23,2A7.88,7.88,0,0,1,113.39,26l0,1.09a8.27,8.27,0,0,1-2,5.85,7.08,7.08,0,0,1-5.46,2.21,7.16,7.16,0,0,1-5.48-2.2,8.46,8.46,0,0,1-2-6Zm4.23.3a6,6,0,0,0,.85,3.46,3.06,3.06,0,0,0,4.84,0,6.55,6.55,0,0,0,.86-3.78,5.91,5.91,0,0,0-.86-3.43,2.82,2.82,0,0,0-2.43-1.22,2.79,2.79,0,0,0-2.41,1.21A6.66,6.66,0,0,0,102.63,27.05Z" transform="translate(-8.59 -12.01)"/><path class="cls-1" d="M126.11,30.44a1.37,1.37,0,0,0-.77-1.22,8.86,8.86,0,0,0-2.47-.8q-5.66-1.19-5.65-4.8A4.36,4.36,0,0,1,119,20.09a7,7,0,0,1,4.57-1.41,7.59,7.59,0,0,1,4.83,1.42,4.47,4.47,0,0,1,1.81,3.69H126a2.07,2.07,0,0,0-.59-1.5,2.5,2.5,0,0,0-1.83-.59,2.56,2.56,0,0,0-1.66.48,1.52,1.52,0,0,0-.58,1.23,1.31,1.31,0,0,0,.66,1.14,7.19,7.19,0,0,0,2.25.74,18.64,18.64,0,0,1,2.67.71c2.23.82,3.35,2.25,3.35,4.27a4.12,4.12,0,0,1-1.86,3.5,8,8,0,0,1-4.8,1.35A8.29,8.29,0,0,1,120,34.4a5.88,5.88,0,0,1-2.42-1.94,4.52,4.52,0,0,1-.88-2.68h4a2.2,2.2,0,0,0,.84,1.73,3.3,3.3,0,0,0,2.08.6,3,3,0,0,0,1.83-.46A1.43,1.43,0,0,0,126.11,30.44Z" transform="translate(-8.59 -12.01)"/><path class="cls-1" d="M141.74,35.12A7.8,7.8,0,0,1,136.07,33a7.62,7.62,0,0,1-2.19-5.7v-.41a9.5,9.5,0,0,1,.92-4.27,6.76,6.76,0,0,1,2.61-2.9,7.35,7.35,0,0,1,3.86-1,6.56,6.56,0,0,1,5.12,2.05,8.33,8.33,0,0,1,1.87,5.82v1.72H138.17a3.92,3.92,0,0,0,1.24,2.49,3.7,3.7,0,0,0,2.61.94,4.56,4.56,0,0,0,3.82-1.77l2.08,2.33a6.28,6.28,0,0,1-2.57,2.1A8.55,8.55,0,0,1,141.74,35.12Zm-.48-13a2.64,2.64,0,0,0-2,.86,4.39,4.39,0,0,0-1,2.44h5.89v-.34a3.13,3.13,0,0,0-.76-2.18A2.71,2.71,0,0,0,141.26,22.09Z" transform="translate(-8.59 -12.01)"/><path class="cls-1" d="M177.56,13.49V27.54a7.19,7.19,0,0,1-2.19,5.54,9.84,9.84,0,0,1-11.92.06,7.06,7.06,0,0,1-2.24-5.44V13.49h4.39V27.57a4.07,4.07,0,0,0,1,3.06,3.82,3.82,0,0,0,2.77.95c2.47,0,3.73-1.29,3.77-3.89V13.49Z" transform="translate(-8.59 -12.01)"/><path class="cls-1" d="M186.28,19l.13,1.83A5.54,5.54,0,0,1,191,18.68a4.59,4.59,0,0,1,3.75,1.48A6.91,6.91,0,0,1,196,24.58V34.82h-4.23V24.69a2.72,2.72,0,0,0-.59-2,2.59,2.59,0,0,0-1.94-.61,2.9,2.9,0,0,0-2.68,1.53V34.82h-4.24V19Z" transform="translate(-8.59 -12.01)"/><path class="cls-1" d="M200.65,14.87a2.12,2.12,0,0,1,.64-1.57,2.76,2.76,0,0,1,3.46,0,2.23,2.23,0,0,1,0,3.15,2.71,2.71,0,0,1-3.45,0A2.08,2.08,0,0,1,200.65,14.87Zm4.5,20H200.9V19h4.25Z" transform="translate(-8.59 -12.01)"/><path class="cls-1" d="M216.07,29.65,219,19h4.43l-5.35,15.85h-4L208.7,19h4.42Z" transform="translate(-8.59 -12.01)"/><path class="cls-1" d="M233.9,35.12A7.8,7.8,0,0,1,228.23,33a7.62,7.62,0,0,1-2.19-5.7v-.41A9.5,9.5,0,0,1,227,22.6a6.76,6.76,0,0,1,2.61-2.9,7.35,7.35,0,0,1,3.86-1,6.56,6.56,0,0,1,5.12,2.05,8.33,8.33,0,0,1,1.87,5.82v1.72H230.33a3.87,3.87,0,0,0,1.24,2.49,3.7,3.7,0,0,0,2.61.94A4.56,4.56,0,0,0,238,29.93l2.08,2.33a6.28,6.28,0,0,1-2.57,2.1A8.55,8.55,0,0,1,233.9,35.12Zm-.48-13a2.64,2.64,0,0,0-2,.86,4.39,4.39,0,0,0-1,2.44h5.89v-.34a3.13,3.13,0,0,0-.76-2.18A2.71,2.71,0,0,0,233.42,22.09Z" transform="translate(-8.59 -12.01)"/><path class="cls-1" d="M253.23,22.94a11.07,11.07,0,0,0-1.52-.11q-2.42,0-3.15,1.62V34.82h-4.24V19h4l.12,1.89A3.93,3.93,0,0,1,252,18.68a4.34,4.34,0,0,1,1.32.19Z" transform="translate(-8.59 -12.01)"/><path class="cls-1" d="M265.35,30.44a1.37,1.37,0,0,0-.77-1.22,8.86,8.86,0,0,0-2.47-.8q-5.66-1.19-5.65-4.8a4.36,4.36,0,0,1,1.75-3.53,7.08,7.08,0,0,1,4.58-1.41,7.56,7.56,0,0,1,4.82,1.42,4.47,4.47,0,0,1,1.81,3.69h-4.23a2.07,2.07,0,0,0-.59-1.5,2.5,2.5,0,0,0-1.83-.59,2.53,2.53,0,0,0-1.65.48,1.52,1.52,0,0,0-.59,1.23,1.3,1.3,0,0,0,.67,1.14,7,7,0,0,0,2.24.74,18.64,18.64,0,0,1,2.67.71c2.24.82,3.36,2.25,3.36,4.27a4.11,4.11,0,0,1-1.87,3.5,8,8,0,0,1-4.8,1.35,8.29,8.29,0,0,1-3.54-.72,5.88,5.88,0,0,1-2.42-1.94,4.52,4.52,0,0,1-.88-2.68h4a2.2,2.2,0,0,0,.84,1.73,3.32,3.32,0,0,0,2.08.6,3.07,3.07,0,0,0,1.84-.46A1.45,1.45,0,0,0,265.35,30.44Z" transform="translate(-8.59 -12.01)"/><path class="cls-1" d="M273.66,14.87a2.08,2.08,0,0,1,.64-1.57,2.76,2.76,0,0,1,3.46,0,2.09,2.09,0,0,1,.65,1.57,2.05,2.05,0,0,1-.66,1.58,2.39,2.39,0,0,1-1.72.62,2.42,2.42,0,0,1-1.72-.62A2.08,2.08,0,0,1,273.66,14.87Zm4.5,20h-4.25V19h4.25Z" transform="translate(-8.59 -12.01)"/><path class="cls-1" d="M288.21,15.08V19h2.71v3.11h-2.71V30a1.88,1.88,0,0,0,.34,1.26,1.7,1.7,0,0,0,1.29.38,7.5,7.5,0,0,0,1.24-.1v3.2a8.5,8.5,0,0,1-2.56.39q-4.45,0-4.54-4.5V22.08h-2.32V19H284V15.08Z" transform="translate(-8.59 -12.01)"/><path class="cls-1" d="M300.7,28.83,303.63,19h4.54L301.8,37.28l-.35.84a4.83,4.83,0,0,1-4.69,3.1,6.89,6.89,0,0,1-1.88-.27V37.74h.65a3.5,3.5,0,0,0,1.79-.36,2.38,2.38,0,0,0,.93-1.22l.5-1.3L293.2,19h4.55Z" transform="translate(-8.59 -12.01)"/><path class="cls-1" d="M319.65,26.75a9.33,9.33,0,0,1,.91-4.2,6.64,6.64,0,0,1,2.61-2.86,7.68,7.68,0,0,1,4-1,7.2,7.2,0,0,1,5.23,2A7.88,7.88,0,0,1,334.64,26l0,1.09a8.27,8.27,0,0,1-2,5.85,7.08,7.08,0,0,1-5.46,2.21,7.16,7.16,0,0,1-5.48-2.2,8.46,8.46,0,0,1-2-6Zm4.23.3a6,6,0,0,0,.85,3.46,3.06,3.06,0,0,0,4.84,0,6.55,6.55,0,0,0,.86-3.78,5.91,5.91,0,0,0-.86-3.43,2.82,2.82,0,0,0-2.43-1.22,2.79,2.79,0,0,0-2.41,1.21A6.66,6.66,0,0,0,323.88,27.05Z" transform="translate(-8.59 -12.01)"/><path class="cls-1" d="M339.93,34.82V22.08h-2.36V19h2.36V17.62a5.46,5.46,0,0,1,1.53-4.13A5.94,5.94,0,0,1,345.75,12a9.7,9.7,0,0,1,2.15.3l0,3.28a5.25,5.25,0,0,0-1.28-.13c-1.6,0-2.39.74-2.39,2.24V19h3.15v3.11h-3.15V34.82Z" transform="translate(-8.59 -12.01)"/><path class="cls-1" d="M371.33,29.23a2.27,2.27,0,0,0-.88-1.92,11.52,11.52,0,0,0-3.16-1.4,22.19,22.19,0,0,1-3.62-1.46q-3.63-2-3.63-5.29a5.13,5.13,0,0,1,1-3.08,6.44,6.44,0,0,1,2.8-2.12,10.7,10.7,0,0,1,4.1-.76A9.61,9.61,0,0,1,372,14a6.45,6.45,0,0,1,2.77,2.34,6.07,6.07,0,0,1,1,3.42h-4.39a2.88,2.88,0,0,0-.92-2.27,3.77,3.77,0,0,0-2.6-.82,4.06,4.06,0,0,0-2.5.68,2.16,2.16,0,0,0-.9,1.8,2.06,2.06,0,0,0,1.05,1.74,11.89,11.89,0,0,0,3.08,1.32A13.23,13.23,0,0,1,374,25a5.57,5.57,0,0,1,1.71,4.16,5.15,5.15,0,0,1-2.09,4.34A9.18,9.18,0,0,1,368,35.12a10.87,10.87,0,0,1-4.48-.91,7.13,7.13,0,0,1-3.09-2.46,6.33,6.33,0,0,1-1.06-3.64h4.41c0,2.36,1.41,3.53,4.22,3.53a4.12,4.12,0,0,0,2.44-.63A2.07,2.07,0,0,0,371.33,29.23Z" transform="translate(-8.59 -12.01)"/><path class="cls-1" d="M386.53,31.7a2.75,2.75,0,0,0,1.9-.64,2.26,2.26,0,0,0,.77-1.72h4a5.52,5.52,0,0,1-.88,3,5.92,5.92,0,0,1-2.37,2.08,7.46,7.46,0,0,1-3.32.74A6.86,6.86,0,0,1,381.24,33a8.53,8.53,0,0,1-2-6v-.28a8.47,8.47,0,0,1,2-5.85,6.81,6.81,0,0,1,5.34-2.18,6.64,6.64,0,0,1,4.77,1.69,6,6,0,0,1,1.83,4.51h-4a2.89,2.89,0,0,0-.77-2,2.81,2.81,0,0,0-4.16.3,6.2,6.2,0,0,0-.76,3.5v.44a6.3,6.3,0,0,0,.75,3.52A2.56,2.56,0,0,0,386.53,31.7Z" transform="translate(-8.59 -12.01)"/><path class="cls-1" d="M397.05,14.87a2.12,2.12,0,0,1,.64-1.57,2.4,2.4,0,0,1,1.74-.61,2.36,2.36,0,0,1,1.72.61,2.23,2.23,0,0,1,0,3.15,2.42,2.42,0,0,1-1.72.62,2.39,2.39,0,0,1-1.72-.62A2.05,2.05,0,0,1,397.05,14.87Zm4.5,20H397.3V19h4.25Z" transform="translate(-8.59 -12.01)"/><path class="cls-1" d="M413.83,35.12A7.8,7.8,0,0,1,408.16,33a7.62,7.62,0,0,1-2.19-5.7v-.41a9.5,9.5,0,0,1,.92-4.27,6.76,6.76,0,0,1,2.61-2.9,7.35,7.35,0,0,1,3.86-1,6.56,6.56,0,0,1,5.12,2.05,8.33,8.33,0,0,1,1.87,5.82v1.72H410.26a3.87,3.87,0,0,0,1.24,2.49,3.7,3.7,0,0,0,2.61.94,4.56,4.56,0,0,0,3.82-1.77L420,32.26a6.28,6.28,0,0,1-2.57,2.1A8.55,8.55,0,0,1,413.83,35.12Zm-.48-13a2.67,2.67,0,0,0-2.05.86,4.45,4.45,0,0,0-1,2.44h5.89v-.34a3.13,3.13,0,0,0-.76-2.18A2.71,2.71,0,0,0,413.35,22.09Z" transform="translate(-8.59 -12.01)"/><path class="cls-1" d="M428.15,19l.13,1.83a5.54,5.54,0,0,1,4.56-2.12,4.59,4.59,0,0,1,3.75,1.48,6.91,6.91,0,0,1,1.26,4.42V34.82h-4.24V24.69a2.77,2.77,0,0,0-.58-2,2.6,2.6,0,0,0-1.95-.61,2.9,2.9,0,0,0-2.68,1.53V34.82h-4.24V19Z" transform="translate(-8.59 -12.01)"/><path class="cls-1" d="M449.15,31.7a2.77,2.77,0,0,0,1.9-.64,2.26,2.26,0,0,0,.76-1.72h4a5.43,5.43,0,0,1-.88,3,5.82,5.82,0,0,1-2.36,2.08,7.46,7.46,0,0,1-3.32.74A6.85,6.85,0,0,1,443.86,33a8.53,8.53,0,0,1-2-6v-.28a8.47,8.47,0,0,1,1.94-5.85,6.82,6.82,0,0,1,5.35-2.18A6.67,6.67,0,0,1,454,20.37a6,6,0,0,1,1.82,4.51h-4a2.88,2.88,0,0,0-.76-2,2.52,2.52,0,0,0-1.93-.78,2.56,2.56,0,0,0-2.24,1.08,6.29,6.29,0,0,0-.75,3.5v.44a6.3,6.3,0,0,0,.75,3.52A2.55,2.55,0,0,0,449.15,31.7Z" transform="translate(-8.59 -12.01)"/><path class="cls-1" d="M467,35.12A7.8,7.8,0,0,1,461.32,33a7.62,7.62,0,0,1-2.19-5.7v-.41a9.64,9.64,0,0,1,.92-4.27,6.78,6.78,0,0,1,2.62-2.9,7.29,7.29,0,0,1,3.85-1,6.56,6.56,0,0,1,5.12,2.05,8.33,8.33,0,0,1,1.87,5.82v1.72H463.42a3.92,3.92,0,0,0,1.24,2.49,3.72,3.72,0,0,0,2.61.94,4.59,4.59,0,0,0,3.83-1.77l2.08,2.33a6.38,6.38,0,0,1-2.58,2.1A8.55,8.55,0,0,1,467,35.12Zm-.48-13a2.64,2.64,0,0,0-2,.86,4.39,4.39,0,0,0-1,2.44h5.89v-.34a3.13,3.13,0,0,0-.76-2.18A2.71,2.71,0,0,0,466.51,22.09Z" transform="translate(-8.59 -12.01)"/><path class="cls-1" d="M485.8,29.08a4.9,4.9,0,0,1,.83-2.74,11.46,11.46,0,0,1,3-2.8,14.4,14.4,0,0,1-1.5-2.39,5.35,5.35,0,0,1-.54-2.34,5.45,5.45,0,0,1,1.58-4,5.74,5.74,0,0,1,4.24-1.56,5.5,5.5,0,0,1,3.91,1.42,4.66,4.66,0,0,1,1.54,3.55,5.57,5.57,0,0,1-2.58,4.49l-1.64,1.19,3.67,4.28a8.09,8.09,0,0,0,.87-3.75h3.6a11,11,0,0,1-1.92,6.74l3.2,3.7h-4.81l-1.1-1.26a9.6,9.6,0,0,1-5.42,1.56,7.43,7.43,0,0,1-5.07-1.67A5.51,5.51,0,0,1,485.8,29.08ZM493,31.7a5.33,5.33,0,0,0,2.88-.85L491.66,26l-.31.22a3.34,3.34,0,0,0-1.3,2.62,2.77,2.77,0,0,0,.81,2.07A2.9,2.9,0,0,0,493,31.7Zm-1.56-12.95a5,5,0,0,0,1.29,2.77l1.13-.75a3.82,3.82,0,0,0,1.2-1.08,2.41,2.41,0,0,0,.32-1.26,1.73,1.73,0,0,0-.54-1.27,1.85,1.85,0,0,0-1.39-.55,1.93,1.93,0,0,0-1.46.59A2.21,2.21,0,0,0,491.42,18.75Z" transform="translate(-8.59 -12.01)"/><path class="cls-1" d="M532,17.05h-6.54V34.82h-4.39V17.05h-6.45V13.49H532Z" transform="translate(-8.59 -12.01)"/><path class="cls-1" d="M541.72,35.12A7.8,7.8,0,0,1,536,33a7.62,7.62,0,0,1-2.19-5.7v-.41a9.64,9.64,0,0,1,.92-4.27,6.78,6.78,0,0,1,2.62-2.9,7.3,7.3,0,0,1,3.86-1,6.59,6.59,0,0,1,5.12,2.05,8.37,8.37,0,0,1,1.86,5.82v1.72H538.14a3.92,3.92,0,0,0,1.24,2.49,3.72,3.72,0,0,0,2.61.94,4.59,4.59,0,0,0,3.83-1.77l2.08,2.33a6.38,6.38,0,0,1-2.58,2.1A8.54,8.54,0,0,1,541.72,35.12Zm-.49-13a2.64,2.64,0,0,0-2,.86,4.38,4.38,0,0,0-1,2.44h5.88v-.34a3.13,3.13,0,0,0-.76-2.18A2.71,2.71,0,0,0,541.23,22.09Z" transform="translate(-8.59 -12.01)"/><path class="cls-1" d="M558.73,31.7a2.77,2.77,0,0,0,1.9-.64,2.26,2.26,0,0,0,.76-1.72h4a5.43,5.43,0,0,1-.88,3,5.82,5.82,0,0,1-2.36,2.08,7.46,7.46,0,0,1-3.32.74A6.86,6.86,0,0,1,553.44,33a8.53,8.53,0,0,1-2-6v-.28a8.47,8.47,0,0,1,1.95-5.85,6.8,6.8,0,0,1,5.34-2.18,6.67,6.67,0,0,1,4.77,1.69,6,6,0,0,1,1.82,4.51h-4a2.88,2.88,0,0,0-.76-2,2.52,2.52,0,0,0-1.93-.78,2.56,2.56,0,0,0-2.24,1.08,6.29,6.29,0,0,0-.75,3.5v.44a6.3,6.3,0,0,0,.75,3.52A2.56,2.56,0,0,0,558.73,31.7Z" transform="translate(-8.59 -12.01)"/><path class="cls-1" d="M573.41,20.7a5.29,5.29,0,0,1,4.23-2q5.16,0,5.24,6V34.82h-4.24v-10a2.92,2.92,0,0,0-.59-2,2.5,2.5,0,0,0-1.94-.65,2.89,2.89,0,0,0-2.7,1.44V34.82h-4.23V12.32h4.23Z" transform="translate(-8.59 -12.01)"/><path class="cls-1" d="M591.46,19l.14,1.83a5.54,5.54,0,0,1,4.55-2.12,4.59,4.59,0,0,1,3.75,1.48,6.91,6.91,0,0,1,1.26,4.42V34.82h-4.23V24.69a2.77,2.77,0,0,0-.59-2,2.6,2.6,0,0,0-2-.61,2.91,2.91,0,0,0-2.68,1.53V34.82h-4.23V19Z" transform="translate(-8.59 -12.01)"/><path class="cls-1" d="M605.21,26.75a9.33,9.33,0,0,1,.91-4.2,6.64,6.64,0,0,1,2.61-2.86,7.68,7.68,0,0,1,4-1,7.2,7.2,0,0,1,5.23,2A7.88,7.88,0,0,1,620.2,26l0,1.09a8.27,8.27,0,0,1-2,5.85,7.08,7.08,0,0,1-5.46,2.21,7.16,7.16,0,0,1-5.48-2.2,8.46,8.46,0,0,1-2-6Zm4.23.3a6,6,0,0,0,.85,3.46,3.06,3.06,0,0,0,4.84,0,6.55,6.55,0,0,0,.86-3.78,5.91,5.91,0,0,0-.86-3.43,2.82,2.82,0,0,0-2.43-1.22,2.79,2.79,0,0,0-2.41,1.21A6.66,6.66,0,0,0,609.44,27.05Z" transform="translate(-8.59 -12.01)"/><path class="cls-1" d="M628.8,34.82h-4.25V12.32h4.25Z" transform="translate(-8.59 -12.01)"/><path class="cls-1" d="M633.13,26.75a9.33,9.33,0,0,1,.91-4.2,6.58,6.58,0,0,1,2.61-2.86,7.67,7.67,0,0,1,4-1,7.21,7.21,0,0,1,5.24,2A7.87,7.87,0,0,1,648.11,26l0,1.09a8.31,8.31,0,0,1-2,5.85,7.89,7.89,0,0,1-10.94,0,8.46,8.46,0,0,1-2-6Zm4.23.3a5.91,5.91,0,0,0,.85,3.46,2.82,2.82,0,0,0,2.43,1.19,2.78,2.78,0,0,0,2.4-1.18,6.47,6.47,0,0,0,.87-3.78,5.84,5.84,0,0,0-.87-3.43,3,3,0,0,0-4.83,0A6.58,6.58,0,0,0,637.36,27.05Z" transform="translate(-8.59 -12.01)"/><path class="cls-1" d="M651.63,26.78a9.26,9.26,0,0,1,1.74-5.87,5.62,5.62,0,0,1,4.68-2.23,5,5,0,0,1,4.06,1.79l.17-1.5h3.84V34.29a6.76,6.76,0,0,1-.94,3.62,6.09,6.09,0,0,1-2.66,2.35,9.45,9.45,0,0,1-4,.8,8.71,8.71,0,0,1-3.39-.69,6.12,6.12,0,0,1-2.51-1.8L654.48,36a4.92,4.92,0,0,0,3.83,1.78,3.65,3.65,0,0,0,2.63-.9,3.41,3.41,0,0,0,.93-2.56v-.85A4.9,4.9,0,0,1,658,35.12a5.62,5.62,0,0,1-4.62-2.24A9.26,9.26,0,0,1,651.63,27Zm4.24.32a5.85,5.85,0,0,0,.86,3.38,2.77,2.77,0,0,0,2.37,1.22,2.93,2.93,0,0,0,2.77-1.45V23.57a2.94,2.94,0,0,0-2.74-1.45,2.77,2.77,0,0,0-2.39,1.25A6.52,6.52,0,0,0,655.87,27.1Z" transform="translate(-8.59 -12.01)"/><path class="cls-1" d="M676.79,28.83,679.72,19h4.54l-6.37,18.31-.35.84a4.83,4.83,0,0,1-4.69,3.1A6.82,6.82,0,0,1,671,41V37.74h.64a3.57,3.57,0,0,0,1.8-.36,2.49,2.49,0,0,0,.93-1.22l.49-1.3L669.29,19h4.56Z" transform="translate(-8.59 -12.01)"/><path class="cls-1" d="M686.08,40.17,683.87,39l.53-.95a7.67,7.67,0,0,0,1-3.56V31.22H689v2.93a7.57,7.57,0,0,1-.82,3.28A8.47,8.47,0,0,1,686.08,40.17Z" transform="translate(-8.59 -12.01)"/><path class="cls-1" d="M710.41,23.1l4.44-9.61h4.81l-7,13.6v7.73h-4.46V27.09l-7-13.6H706Z" transform="translate(-8.59 -12.01)"/><path class="cls-1" d="M728.85,13.49,734.32,29l5.45-15.47h5.77V34.82h-4.4V29l.44-10.06-5.76,15.89h-3l-5.74-15.88.44,10v5.83h-4.4V13.49Z" transform="translate(-8.59 -12.01)"/><path class="cls-1" d="M767.63,27.72a7.58,7.58,0,0,1-2.55,5.42,8.9,8.9,0,0,1-6,2,8,8,0,0,1-6.45-2.77,11.29,11.29,0,0,1-2.35-7.58v-1.3a12.82,12.82,0,0,1,1.08-5.42,8.18,8.18,0,0,1,3.1-3.6,9.69,9.69,0,0,1,10.63.73,8.16,8.16,0,0,1,2.61,5.55h-4.4a4.47,4.47,0,0,0-1.15-3,4.26,4.26,0,0,0-3-.93,3.75,3.75,0,0,0-3.29,1.58,8.81,8.81,0,0,0-1.12,4.88v1.62a9.41,9.41,0,0,0,1,5.05,3.68,3.68,0,0,0,3.3,1.6,4.34,4.34,0,0,0,3-.93,4.21,4.21,0,0,0,1.15-2.88Z" transform="translate(-8.59 -12.01)"/><path class="cls-1" d="M784.05,30.43h-7.7l-1.47,4.39h-4.67l7.94-21.33h4.07l8,21.33h-4.68Zm-6.52-3.56h5.34l-2.68-8Z" transform="translate(-8.59 -12.01)"/><path class="cls-1" d="M794.52,40.17,792.31,39l.52-.95a7.55,7.55,0,0,0,1-3.56V31.22h3.58l0,2.93a7.57,7.57,0,0,1-.82,3.28A8.31,8.31,0,0,1,794.52,40.17Z" transform="translate(-8.59 -12.01)"/><path class="cls-1" d="M824.32,26.11h-8.43v8.71h-4.4V13.49h13.89v3.56h-9.49v5.51h8.43Z" transform="translate(-8.59 -12.01)"/><path class="cls-1" d="M837.84,34.82a4.58,4.58,0,0,1-.43-1.42,5.13,5.13,0,0,1-4,1.72,5.63,5.63,0,0,1-3.86-1.35,4.34,4.34,0,0,1-1.53-3.4,4.48,4.48,0,0,1,1.87-3.87,9.19,9.19,0,0,1,5.4-1.36h2v-.91a2.61,2.61,0,0,0-.57-1.76,2.22,2.22,0,0,0-1.78-.66,2.56,2.56,0,0,0-1.68.52,1.74,1.74,0,0,0-.6,1.4h-4.24a4.34,4.34,0,0,1,.85-2.55,5.62,5.62,0,0,1,2.4-1.83,8.69,8.69,0,0,1,3.49-.67,6.93,6.93,0,0,1,4.65,1.47,5.14,5.14,0,0,1,1.72,4.14v6.87a7.57,7.57,0,0,0,.63,3.41v.25Zm-3.51-2.94a3.6,3.6,0,0,0,1.73-.42,2.78,2.78,0,0,0,1.18-1.12V27.62h-1.59c-2.12,0-3.24.73-3.38,2.19l0,.25a1.72,1.72,0,0,0,.56,1.31A2.17,2.17,0,0,0,834.33,31.88Z" transform="translate(-8.59 -12.01)"/><path class="cls-1" d="M855.14,22.94a11,11,0,0,0-1.52-.11q-2.4,0-3.15,1.62V34.82h-4.23V19h4l.12,1.89a3.93,3.93,0,0,1,3.53-2.18,4.34,4.34,0,0,1,1.32.19Z" transform="translate(-8.59 -12.01)"/><path class="cls-1" d="M858.65,14.87a2.08,2.08,0,0,1,.64-1.57,2.76,2.76,0,0,1,3.46,0,2.09,2.09,0,0,1,.65,1.57,2.05,2.05,0,0,1-.66,1.58,2.39,2.39,0,0,1-1.72.62,2.42,2.42,0,0,1-1.72-.62A2.08,2.08,0,0,1,858.65,14.87Zm4.5,20H858.9V19h4.25Z" transform="translate(-8.59 -12.01)"/><path class="cls-1" d="M867.47,26.78a9.59,9.59,0,0,1,1.66-5.9,5.39,5.39,0,0,1,4.55-2.2,4.87,4.87,0,0,1,3.83,1.73V12.32h4.24v22.5h-3.82l-.2-1.68a5,5,0,0,1-4.08,2,5.39,5.39,0,0,1-4.49-2.21A9.9,9.9,0,0,1,867.47,26.78Zm4.24.32a6.22,6.22,0,0,0,.77,3.41,2.52,2.52,0,0,0,2.26,1.19A2.83,2.83,0,0,0,877.51,30V23.78a2.79,2.79,0,0,0-2.74-1.66Q871.71,22.12,871.71,27.1Z" transform="translate(-8.59 -12.01)"/><path class="cls-1" d="M895.72,34.82a4.59,4.59,0,0,1-.42-1.42,5.15,5.15,0,0,1-4,1.72,5.61,5.61,0,0,1-3.86-1.35,4.34,4.34,0,0,1-1.53-3.4,4.49,4.49,0,0,1,1.86-3.87,9.23,9.23,0,0,1,5.4-1.36h2v-.91a2.65,2.65,0,0,0-.56-1.76,2.22,2.22,0,0,0-1.78-.66,2.52,2.52,0,0,0-1.68.52,1.72,1.72,0,0,0-.61,1.4h-4.23a4.27,4.27,0,0,1,.85-2.55,5.5,5.5,0,0,1,2.4-1.83,8.66,8.66,0,0,1,3.49-.67,6.93,6.93,0,0,1,4.65,1.47,5.17,5.17,0,0,1,1.72,4.14v6.87a7.57,7.57,0,0,0,.63,3.41v.25Zm-3.5-2.94a3.66,3.66,0,0,0,1.73-.42,2.7,2.7,0,0,0,1.17-1.12V27.62h-1.58q-3.18,0-3.39,2.19v.25a1.72,1.72,0,0,0,.56,1.31A2.17,2.17,0,0,0,892.22,31.88Z" transform="translate(-8.59 -12.01)"/><path class="cls-1" d="M918.4,27A9.62,9.62,0,0,1,916.78,33a5.4,5.4,0,0,1-4.54,2.14,4.94,4.94,0,0,1-4.12-2l-.19,1.68h-3.81V12.32h4.23v8.07a4.83,4.83,0,0,1,3.86-1.71,5.41,5.41,0,0,1,4.54,2.13,9.6,9.6,0,0,1,1.65,6Zm-4.23-.3a6.28,6.28,0,0,0-.76-3.51,2.58,2.58,0,0,0-2.27-1.11,2.8,2.8,0,0,0-2.79,1.66V30a2.83,2.83,0,0,0,2.82,1.67,2.61,2.61,0,0,0,2.69-2A10.21,10.21,0,0,0,914.17,26.74Z" transform="translate(-8.59 -12.01)"/><path class="cls-1" d="M931.7,34.82a4.58,4.58,0,0,1-.43-1.42,5.13,5.13,0,0,1-4,1.72,5.63,5.63,0,0,1-3.86-1.35,4.34,4.34,0,0,1-1.53-3.4,4.48,4.48,0,0,1,1.87-3.87,9.19,9.19,0,0,1,5.4-1.36h1.94v-.91a2.6,2.6,0,0,0-.56-1.76,2.22,2.22,0,0,0-1.78-.66,2.56,2.56,0,0,0-1.68.52,1.74,1.74,0,0,0-.6,1.4h-4.24a4.34,4.34,0,0,1,.85-2.55,5.62,5.62,0,0,1,2.4-1.83,8.69,8.69,0,0,1,3.49-.67,6.93,6.93,0,0,1,4.65,1.47,5.14,5.14,0,0,1,1.72,4.14v6.87a7.57,7.57,0,0,0,.63,3.41v.25Zm-3.51-2.94a3.6,3.6,0,0,0,1.73-.42,2.7,2.7,0,0,0,1.17-1.12V27.62h-1.58c-2.12,0-3.24.73-3.38,2.19l0,.25a1.72,1.72,0,0,0,.56,1.31A2.17,2.17,0,0,0,928.19,31.88Z" transform="translate(-8.59 -12.01)"/><path class="cls-1" d="M939.44,26.78a9.52,9.52,0,0,1,1.66-5.9,5.38,5.38,0,0,1,4.55-2.2,4.87,4.87,0,0,1,3.82,1.73V12.32h4.25v22.5h-3.83l-.2-1.68a5,5,0,0,1-4.07,2,5.38,5.38,0,0,1-4.49-2.21A9.84,9.84,0,0,1,939.44,26.78Zm4.23.32a6.21,6.21,0,0,0,.78,3.41,2.49,2.49,0,0,0,2.25,1.19A2.83,2.83,0,0,0,949.47,30V23.78a2.79,2.79,0,0,0-2.74-1.66Q943.67,22.12,943.67,27.1Z" transform="translate(-8.59 -12.01)"/><path class="cls-1" d="M959.6,40.17,957.39,39l.52-.95a7.55,7.55,0,0,0,1-3.56V31.22h3.58l0,2.93a7.57,7.57,0,0,1-.82,3.28A8.31,8.31,0,0,1,959.6,40.17Z" transform="translate(-8.59 -12.01)"/><path class="cls-1" d="M993.93,34.82h-4.39V25.68H981v9.14h-4.4V13.49H981v8.65h8.57V13.49h4.39Z" transform="translate(-8.59 -12.01)"/><path class="cls-1" d="M1008.17,34.82a4.88,4.88,0,0,1-.42-1.42,5.15,5.15,0,0,1-4,1.72,5.63,5.63,0,0,1-3.86-1.35,4.34,4.34,0,0,1-1.53-3.4,4.48,4.48,0,0,1,1.87-3.87,9.18,9.18,0,0,1,5.39-1.36h2v-.91a2.65,2.65,0,0,0-.56-1.76,2.22,2.22,0,0,0-1.78-.66,2.56,2.56,0,0,0-1.68.52,1.75,1.75,0,0,0-.61,1.4h-4.23a4.27,4.27,0,0,1,.85-2.55,5.62,5.62,0,0,1,2.4-1.83,8.69,8.69,0,0,1,3.49-.67,6.93,6.93,0,0,1,4.65,1.47,5.14,5.14,0,0,1,1.72,4.14v6.87a7.57,7.57,0,0,0,.63,3.41v.25Zm-3.5-2.94a3.63,3.63,0,0,0,1.73-.42,2.7,2.7,0,0,0,1.17-1.12V27.62H1006c-2.12,0-3.25.73-3.38,2.19l0,.25a1.72,1.72,0,0,0,.56,1.31A2.17,2.17,0,0,0,1004.67,31.88Z" transform="translate(-8.59 -12.01)"/><path class="cls-1" d="M1025.48,22.94a11.07,11.07,0,0,0-1.52-.11q-2.41,0-3.15,1.62V34.82h-4.24V19h4l.12,1.89a3.93,3.93,0,0,1,3.53-2.18,4.34,4.34,0,0,1,1.32.19Z" transform="translate(-8.59 -12.01)"/><path class="cls-1" d="M1035.2,28.83l2.93-9.86h4.54l-6.37,18.31-.35.84a4.83,4.83,0,0,1-4.69,3.1,6.89,6.89,0,0,1-1.88-.27V37.74h.65a3.5,3.5,0,0,0,1.79-.36,2.38,2.38,0,0,0,.93-1.22l.5-1.3L1027.7,19h4.55Z" transform="translate(-8.59 -12.01)"/><path class="cls-1" d="M1054.8,34.82a4.88,4.88,0,0,1-.42-1.42,5.15,5.15,0,0,1-4,1.72,5.63,5.63,0,0,1-3.86-1.35,4.34,4.34,0,0,1-1.53-3.4,4.48,4.48,0,0,1,1.87-3.87,9.18,9.18,0,0,1,5.39-1.36h2v-.91a2.65,2.65,0,0,0-.56-1.76,2.22,2.22,0,0,0-1.78-.66,2.56,2.56,0,0,0-1.68.52,1.75,1.75,0,0,0-.61,1.4h-4.23a4.27,4.27,0,0,1,.85-2.55,5.62,5.62,0,0,1,2.4-1.83,8.69,8.69,0,0,1,3.49-.67,6.93,6.93,0,0,1,4.65,1.47,5.14,5.14,0,0,1,1.72,4.14v6.87a7.57,7.57,0,0,0,.63,3.41v.25Zm-3.5-2.94a3.63,3.63,0,0,0,1.73-.42,2.7,2.7,0,0,0,1.17-1.12V27.62h-1.58c-2.12,0-3.25.73-3.38,2.19l0,.25a1.72,1.72,0,0,0,.56,1.31A2.17,2.17,0,0,0,1051.3,31.88Z" transform="translate(-8.59 -12.01)"/><path class="cls-1" d="M1067.1,19l.13,1.83a5.54,5.54,0,0,1,4.56-2.12,4.59,4.59,0,0,1,3.75,1.48,6.91,6.91,0,0,1,1.26,4.42V34.82h-4.24V24.69a2.77,2.77,0,0,0-.58-2,2.6,2.6,0,0,0-2-.61,2.9,2.9,0,0,0-2.68,1.53V34.82h-4.24V19Z" transform="translate(-8.59 -12.01)"/><path class="cls-1" d="M1090.69,34.82a4.58,4.58,0,0,1-.43-1.42,5.11,5.11,0,0,1-4,1.72,5.61,5.61,0,0,1-3.86-1.35,4.31,4.31,0,0,1-1.53-3.4,4.49,4.49,0,0,1,1.86-3.87,9.23,9.23,0,0,1,5.4-1.36h1.95v-.91a2.65,2.65,0,0,0-.56-1.76,2.22,2.22,0,0,0-1.78-.66,2.52,2.52,0,0,0-1.68.52,1.72,1.72,0,0,0-.61,1.4h-4.23a4.27,4.27,0,0,1,.85-2.55,5.5,5.5,0,0,1,2.4-1.83,8.64,8.64,0,0,1,3.48-.67,6.94,6.94,0,0,1,4.66,1.47,5.17,5.17,0,0,1,1.72,4.14v6.87a7.57,7.57,0,0,0,.63,3.41v.25Zm-3.5-2.94a3.66,3.66,0,0,0,1.73-.42,2.82,2.82,0,0,0,1.17-1.12V27.62h-1.58q-3.18,0-3.39,2.19v.25a1.69,1.69,0,0,0,.56,1.31A2.15,2.15,0,0,0,1087.19,31.88Z" transform="translate(-8.59 -12.01)"/><path class="cls-2" d="M11.66,64.3a18.23,18.23,0,0,1,.71-5.11,13.43,13.43,0,0,1,2.11-4.29,7.81,7.81,0,0,1,3-2.6l.65,1.83A8.15,8.15,0,0,0,15.49,58a18.17,18.17,0,0,0-1,6.19v.36a18.51,18.51,0,0,0,1,6.21,8.35,8.35,0,0,0,2.68,4l-.65,1.79a7.78,7.78,0,0,1-3-2.53,13.32,13.32,0,0,1-2.11-4.17,18,18,0,0,1-.77-5Z" transform="translate(-8.59 -12.01)"/><path class="cls-2" d="M32.19,67.72H26l-1.17,3.52H21.11l6.36-17.07h3.25l6.39,17.07H33.37ZM27,64.87h4.27l-2.15-6.38Z" transform="translate(-8.59 -12.01)"/><path class="cls-2" d="M63.37,71.24H59.85V63.92H53v7.32H49.48V54.17H53v6.92h6.85V54.17h3.52Z" transform="translate(-8.59 -12.01)"/><path class="cls-2" d="M76,71.24a4,4,0,0,1-.34-1.14,4.1,4.1,0,0,1-3.2,1.37,4.47,4.47,0,0,1-3.08-1.08,3.46,3.46,0,0,1-1.23-2.72,3.58,3.58,0,0,1,1.5-3.09,7.34,7.34,0,0,1,4.31-1.09h1.56v-.73a2.08,2.08,0,0,0-.45-1.4,1.77,1.77,0,0,0-1.42-.53,2,2,0,0,0-1.34.41,1.38,1.38,0,0,0-.49,1.13H68.39a3.4,3.4,0,0,1,.68-2A4.5,4.5,0,0,1,71,58.86a6.94,6.94,0,0,1,2.79-.54A5.53,5.53,0,0,1,77.5,59.5a4.12,4.12,0,0,1,1.38,3.31v5.5a6.23,6.23,0,0,0,.5,2.73v.2Zm-2.8-2.36a2.93,2.93,0,0,0,1.38-.33,2.11,2.11,0,0,0,.94-.9V65.47H74.22c-1.7,0-2.6.59-2.71,1.76v.2a1.37,1.37,0,0,0,.44,1A1.72,1.72,0,0,0,73.16,68.88Z" transform="translate(-8.59 -12.01)"/><path class="cls-2" d="M91,61.73a9.6,9.6,0,0,0-1.22-.09,2.48,2.48,0,0,0-2.52,1.3v8.3H83.88V58.56h3.2l.1,1.51A3.14,3.14,0,0,1,90,58.32a3.25,3.25,0,0,1,1,.16Z" transform="translate(-8.59 -12.01)"/><path class="cls-2" d="M100,66.44l2.35-7.88H106l-5.1,14.65-.28.66a3.87,3.87,0,0,1-3.75,2.49,5.67,5.67,0,0,1-1.5-.22V73.57h.51a2.85,2.85,0,0,0,1.44-.29,1.93,1.93,0,0,0,.74-1l.4-1L94,58.56h3.65Z" transform="translate(-8.59 -12.01)"/><path class="cls-2" d="M116.87,71.24a3.74,3.74,0,0,1-.34-1.14,4.12,4.12,0,0,1-3.2,1.37,4.5,4.5,0,0,1-3.09-1.08A3.46,3.46,0,0,1,109,67.67a3.58,3.58,0,0,1,1.5-3.09,7.36,7.36,0,0,1,4.32-1.09h1.56v-.73a2.09,2.09,0,0,0-.46-1.4,1.77,1.77,0,0,0-1.42-.53,2,2,0,0,0-1.34.41,1.38,1.38,0,0,0-.49,1.13H109.3a3.34,3.34,0,0,1,.68-2,4.38,4.38,0,0,1,1.92-1.47,6.91,6.91,0,0,1,2.79-.54,5.57,5.57,0,0,1,3.72,1.18,4.15,4.15,0,0,1,1.37,3.31v5.5a6.07,6.07,0,0,0,.51,2.73v.2Zm-2.81-2.36a3,3,0,0,0,1.39-.33,2.21,2.21,0,0,0,.94-.9V65.47h-1.27c-1.7,0-2.6.59-2.71,1.76v.2a1.34,1.34,0,0,0,.45,1A1.68,1.68,0,0,0,114.06,68.88Z" transform="translate(-8.59 -12.01)"/><path class="cls-2" d="M127.9,58.56,128,60a4.42,4.42,0,0,1,3.64-1.7,3.66,3.66,0,0,1,3,1.19,5.47,5.47,0,0,1,1,3.54v8.19h-3.39V63.13a2.23,2.23,0,0,0-.46-1.57,2.14,2.14,0,0,0-1.56-.48,2.32,2.32,0,0,0-2.15,1.22v8.94h-3.38V58.56Z" transform="translate(-8.59 -12.01)"/><path class="cls-2" d="M148,71.24a4.4,4.4,0,0,1-.34-1.14,4.09,4.09,0,0,1-3.19,1.37,4.48,4.48,0,0,1-3.09-1.08,3.46,3.46,0,0,1-1.23-2.72,3.58,3.58,0,0,1,1.5-3.09,7.36,7.36,0,0,1,4.32-1.09h1.55v-.73a2.08,2.08,0,0,0-.45-1.4,1.77,1.77,0,0,0-1.42-.53,2,2,0,0,0-1.34.41,1.38,1.38,0,0,0-.49,1.13H140.4a3.4,3.4,0,0,1,.68-2A4.47,4.47,0,0,1,143,58.86a6.86,6.86,0,0,1,2.78-.54,5.58,5.58,0,0,1,3.73,1.18,4.15,4.15,0,0,1,1.37,3.31v5.5A6.07,6.07,0,0,0,151.4,71v.2Zm-2.8-2.36a3,3,0,0,0,1.39-.33,2.13,2.13,0,0,0,.93-.9V65.47h-1.26c-1.7,0-2.6.59-2.71,1.76v.2a1.34,1.34,0,0,0,.45,1A1.68,1.68,0,0,0,145.17,68.88Z" transform="translate(-8.59 -12.01)"/><path class="cls-2" d="M173.34,66.76a1.81,1.81,0,0,0-.7-1.53,9.26,9.26,0,0,0-2.53-1.12,18.7,18.7,0,0,1-2.9-1.17c-1.94-1-2.9-2.46-2.9-4.23a4.21,4.21,0,0,1,.77-2.47,5.15,5.15,0,0,1,2.24-1.69,8.41,8.41,0,0,1,3.28-.61,7.72,7.72,0,0,1,3.26.66,5.24,5.24,0,0,1,2.22,1.87,5,5,0,0,1,.79,2.74h-3.52a2.28,2.28,0,0,0-.74-1.82,3,3,0,0,0-2.07-.65,3.17,3.17,0,0,0-2,.55,1.71,1.71,0,0,0-.72,1.43,1.65,1.65,0,0,0,.84,1.4,9.71,9.71,0,0,0,2.47,1.05,10.68,10.68,0,0,1,4.37,2.24,4.47,4.47,0,0,1,1.37,3.33,4.1,4.1,0,0,1-1.68,3.47,7.32,7.32,0,0,1-4.51,1.26,8.75,8.75,0,0,1-3.59-.72,5.69,5.69,0,0,1-2.46-2,5.05,5.05,0,0,1-.85-2.91h3.53q0,2.82,3.37,2.82a3.29,3.29,0,0,0,2-.51A1.65,1.65,0,0,0,173.34,66.76Z" transform="translate(-8.59 -12.01)"/><path class="cls-2" d="M185.48,55.44v3.12h2.17V61h-2.17v6.33a1.53,1.53,0,0,0,.27,1,1.36,1.36,0,0,0,1,.3,5.06,5.06,0,0,0,1-.08v2.57a7.11,7.11,0,0,1-2.05.3q-3.57,0-3.64-3.6V61h-1.85V58.56h1.85V55.44Z" transform="translate(-8.59 -12.01)"/><path class="cls-2" d="M199.28,71.24a4,4,0,0,1-.34-1.14,4.1,4.1,0,0,1-3.2,1.37,4.51,4.51,0,0,1-3.09-1.08,3.48,3.48,0,0,1-1.22-2.72,3.59,3.59,0,0,1,1.49-3.09,7.4,7.4,0,0,1,4.32-1.09h1.56v-.73a2.08,2.08,0,0,0-.45-1.4,1.78,1.78,0,0,0-1.42-.53,2.07,2.07,0,0,0-1.35.41,1.4,1.4,0,0,0-.48,1.13h-3.39a3.4,3.4,0,0,1,.68-2,4.38,4.38,0,0,1,1.92-1.47,6.94,6.94,0,0,1,2.79-.54,5.57,5.57,0,0,1,3.72,1.18,4.12,4.12,0,0,1,1.38,3.31v5.5a6.23,6.23,0,0,0,.5,2.73v.2Zm-2.8-2.36a2.93,2.93,0,0,0,1.38-.33,2.11,2.11,0,0,0,.94-.9V65.47h-1.26c-1.7,0-2.6.59-2.71,1.76v.2a1.37,1.37,0,0,0,.44,1A1.72,1.72,0,0,0,196.48,68.88Z" transform="translate(-8.59 -12.01)"/><path class="cls-2" d="M211.26,55.44v3.12h2.16V61h-2.16v6.33a1.53,1.53,0,0,0,.27,1,1.36,1.36,0,0,0,1,.3,5,5,0,0,0,1-.08v2.57a7,7,0,0,1-2.05.3q-3.56,0-3.63-3.6V61H206V58.56h1.85V55.44Z" transform="translate(-8.59 -12.01)"/><path class="cls-2" d="M223.55,71.47A6.21,6.21,0,0,1,219,69.76a6.08,6.08,0,0,1-1.76-4.56v-.33a7.66,7.66,0,0,1,.74-3.41,5.36,5.36,0,0,1,2.09-2.32,5.85,5.85,0,0,1,3.09-.82,5.28,5.28,0,0,1,4.1,1.64,6.72,6.72,0,0,1,1.49,4.66V66h-8.07a3.14,3.14,0,0,0,1,2,3,3,0,0,0,2.09.75,3.66,3.66,0,0,0,3.06-1.42l1.66,1.87a5,5,0,0,1-2.06,1.68A6.81,6.81,0,0,1,223.55,71.47Zm-.39-10.42a2.12,2.12,0,0,0-1.64.69,3.57,3.57,0,0,0-.8,1.95h4.71v-.27a2.51,2.51,0,0,0-.61-1.75A2.18,2.18,0,0,0,223.16,61.05Z" transform="translate(-8.59 -12.01)"/><path class="cls-2" d="M255.18,69.08a6,6,0,0,1-2.68,1.76,11.23,11.23,0,0,1-3.85.63,7.55,7.55,0,0,1-3.88-1,6.49,6.49,0,0,1-2.58-2.8,10,10,0,0,1-.93-4.33V62.21a10.56,10.56,0,0,1,.86-4.42,6.35,6.35,0,0,1,2.49-2.86,8.16,8.16,0,0,1,8.54.46,6.13,6.13,0,0,1,2,4.21h-3.42a3.37,3.37,0,0,0-1-2.14,3.27,3.27,0,0,0-2.21-.68,3.14,3.14,0,0,0-2.73,1.34,7.16,7.16,0,0,0-.95,4v1.09a6.77,6.77,0,0,0,1,4.06,3.51,3.51,0,0,0,3,1.37,3.89,3.89,0,0,0,2.83-.85V64.86h-3.2V62.27h6.71Z" transform="translate(-8.59 -12.01)"/><path class="cls-2" d="M259.68,64.78a7.41,7.41,0,0,1,.73-3.36,5.28,5.28,0,0,1,2.09-2.29,6.1,6.1,0,0,1,3.17-.81,5.8,5.8,0,0,1,4.19,1.57,6.35,6.35,0,0,1,1.81,4.27l0,.87a6.62,6.62,0,0,1-1.63,4.68,6.32,6.32,0,0,1-8.75,0,6.77,6.77,0,0,1-1.63-4.78Zm3.39.24a4.65,4.65,0,0,0,.68,2.76,2.44,2.44,0,0,0,3.86,0,5.2,5.2,0,0,0,.7-3,4.68,4.68,0,0,0-.7-2.74,2.25,2.25,0,0,0-1.94-1,2.22,2.22,0,0,0-1.92,1A5.24,5.24,0,0,0,263.07,65Z" transform="translate(-8.59 -12.01)"/><path class="cls-2" d="M280.75,67.1l2.35-8.54h3.54l-4.27,12.68h-3.24l-4.28-12.68h3.54Z" transform="translate(-8.59 -12.01)"/><path class="cls-2" d="M296.21,71.47a6.23,6.23,0,0,1-4.54-1.71,6.11,6.11,0,0,1-1.75-4.56v-.33a7.66,7.66,0,0,1,.74-3.41,5.36,5.36,0,0,1,2.09-2.32,5.8,5.8,0,0,1,3.09-.82,5.3,5.3,0,0,1,4.1,1.64,6.72,6.72,0,0,1,1.49,4.66V66h-8.08a3.11,3.11,0,0,0,1,2,3,3,0,0,0,2.09.75,3.66,3.66,0,0,0,3.06-1.42l1.66,1.87a5.11,5.11,0,0,1-2.06,1.68A6.83,6.83,0,0,1,296.21,71.47Zm-.38-10.42a2.12,2.12,0,0,0-1.64.69,3.5,3.5,0,0,0-.8,1.95h4.71v-.27a2.51,2.51,0,0,0-.61-1.75A2.18,2.18,0,0,0,295.83,61.05Z" transform="translate(-8.59 -12.01)"/><path class="cls-2" d="M312.88,61.73a9.6,9.6,0,0,0-1.22-.09,2.48,2.48,0,0,0-2.52,1.3v8.3h-3.39V58.56H309l.09,1.51a3.16,3.16,0,0,1,2.83-1.75,3.3,3.3,0,0,1,1.05.16Z" transform="translate(-8.59 -12.01)"/><path class="cls-2" d="M320,58.56l.11,1.46a4.42,4.42,0,0,1,3.64-1.7,3.66,3.66,0,0,1,3,1.19,5.53,5.53,0,0,1,1,3.54v8.19h-3.39V63.13a2.19,2.19,0,0,0-.47-1.57,2.1,2.1,0,0,0-1.55-.48,2.32,2.32,0,0,0-2.15,1.22v8.94h-3.39V58.56Z" transform="translate(-8.59 -12.01)"/><path class="cls-2" d="M335.92,58.56,336,60a4.43,4.43,0,0,1,3.64-1.66A3.4,3.4,0,0,1,343,60.26a4.35,4.35,0,0,1,3.8-1.94,3.77,3.77,0,0,1,3.07,1.2,5.5,5.5,0,0,1,1,3.62v8.1h-3.4V63.15a2.4,2.4,0,0,0-.42-1.57,1.85,1.85,0,0,0-1.49-.5,2.11,2.11,0,0,0-2.11,1.45l0,8.71h-3.39V63.16a2.44,2.44,0,0,0-.43-1.59,1.9,1.9,0,0,0-1.48-.49,2.21,2.21,0,0,0-2.09,1.19v9h-3.38V58.56Z" transform="translate(-8.59 -12.01)"/><path class="cls-2" d="M361.76,71.47a6.23,6.23,0,0,1-4.54-1.71,6.07,6.07,0,0,1-1.75-4.56v-.33a7.53,7.53,0,0,1,.74-3.41,5.3,5.3,0,0,1,2.09-2.32,5.79,5.79,0,0,1,3.08-.82,5.28,5.28,0,0,1,4.1,1.64A6.67,6.67,0,0,1,367,64.62V66H358.9a3.14,3.14,0,0,0,1,2,3,3,0,0,0,2.09.75A3.64,3.64,0,0,0,365,67.32l1.67,1.87a5.07,5.07,0,0,1-2.07,1.68A6.78,6.78,0,0,1,361.76,71.47Zm-.39-10.42a2.1,2.1,0,0,0-1.63.69,3.43,3.43,0,0,0-.8,1.95h4.71v-.27a2.55,2.55,0,0,0-.61-1.75A2.2,2.2,0,0,0,361.37,61.05Z" transform="translate(-8.59 -12.01)"/><path class="cls-2" d="M374.41,58.56l.11,1.46a4.44,4.44,0,0,1,3.64-1.7,3.66,3.66,0,0,1,3,1.19,5.47,5.47,0,0,1,1,3.54v8.19h-3.38V63.13a2.23,2.23,0,0,0-.47-1.57,2.14,2.14,0,0,0-1.56-.48,2.32,2.32,0,0,0-2.15,1.22v8.94h-3.38V58.56Z" transform="translate(-8.59 -12.01)"/><path class="cls-2" d="M391.19,55.44v3.12h2.17V61h-2.17v6.33a1.53,1.53,0,0,0,.27,1,1.38,1.38,0,0,0,1,.3,5,5,0,0,0,1-.08v2.57a7.06,7.06,0,0,1-2.05.3q-3.57,0-3.63-3.6V61H386V58.56h1.86V55.44Z" transform="translate(-8.59 -12.01)"/><path class="cls-2" d="M419.16,54.17V65.41a5.73,5.73,0,0,1-1.75,4.43,6.75,6.75,0,0,1-4.79,1.63,6.84,6.84,0,0,1-4.74-1.58,5.66,5.66,0,0,1-1.8-4.35V54.17h3.52V65.44a3.27,3.27,0,0,0,.8,2.44,3.11,3.11,0,0,0,2.22.77q3,0,3-3.12V54.17Z" transform="translate(-8.59 -12.01)"/><path class="cls-2" d="M427.34,58.56l.1,1.46a4.44,4.44,0,0,1,3.65-1.7,3.69,3.69,0,0,1,3,1.19,5.59,5.59,0,0,1,1,3.54v8.19h-3.39V63.13a2.23,2.23,0,0,0-.47-1.57,2.11,2.11,0,0,0-1.56-.48,2.31,2.31,0,0,0-2.14,1.22v8.94h-3.39V58.56Z" transform="translate(-8.59 -12.01)"/><path class="cls-2" d="M440,55.28a1.68,1.68,0,0,1,.51-1.26,2.2,2.2,0,0,1,2.77,0,1.69,1.69,0,0,1,.52,1.26,1.66,1.66,0,0,1-.53,1.26,1.89,1.89,0,0,1-1.37.49,1.93,1.93,0,0,1-1.38-.49A1.65,1.65,0,0,1,440,55.28Zm3.6,16h-3.4V58.56h3.4Z" transform="translate(-8.59 -12.01)"/><path class="cls-2" d="M453.57,67.1l2.36-8.54h3.54l-4.28,12.68H452l-4.27-12.68h3.54Z" transform="translate(-8.59 -12.01)"/><path class="cls-2" d="M469,71.47a6.23,6.23,0,0,1-4.54-1.71,6.07,6.07,0,0,1-1.75-4.56v-.33a7.66,7.66,0,0,1,.73-3.41,5.38,5.38,0,0,1,2.1-2.32,5.79,5.79,0,0,1,3.08-.82,5.28,5.28,0,0,1,4.1,1.64,6.72,6.72,0,0,1,1.49,4.66V66h-8.07a3.14,3.14,0,0,0,1,2,3,3,0,0,0,2.09.75,3.65,3.65,0,0,0,3.06-1.42L474,69.19a5,5,0,0,1-2.06,1.68A6.81,6.81,0,0,1,469,71.47Zm-.39-10.42a2.09,2.09,0,0,0-1.63.69,3.51,3.51,0,0,0-.81,1.95h4.71v-.27a2.5,2.5,0,0,0-.6-1.75A2.22,2.22,0,0,0,468.65,61.05Z" transform="translate(-8.59 -12.01)"/><path class="cls-2" d="M485.7,61.73a9.6,9.6,0,0,0-1.22-.09,2.48,2.48,0,0,0-2.52,1.3v8.3h-3.39V58.56h3.2l.1,1.51a3.15,3.15,0,0,1,2.82-1.75,3.32,3.32,0,0,1,1.06.16Z" transform="translate(-8.59 -12.01)"/><path class="cls-2" d="M496.6,67.73a1.1,1.1,0,0,0-.62-1,7.09,7.09,0,0,0-2-.63q-4.53-1-4.53-3.85a3.51,3.51,0,0,1,1.4-2.82,5.69,5.69,0,0,1,3.66-1.13,6.1,6.1,0,0,1,3.87,1.14,3.59,3.59,0,0,1,1.44,2.95h-3.38a1.66,1.66,0,0,0-.47-1.2,2,2,0,0,0-1.47-.47,2.05,2.05,0,0,0-1.32.38,1.24,1.24,0,0,0-.47,1,1.06,1.06,0,0,0,.53.91,5.42,5.42,0,0,0,1.8.59,15,15,0,0,1,2.14.57c1.78.66,2.68,1.8,2.68,3.41a3.32,3.32,0,0,1-1.49,2.81,6.44,6.44,0,0,1-3.84,1.07,6.65,6.65,0,0,1-2.83-.57,4.73,4.73,0,0,1-1.94-1.56,3.61,3.61,0,0,1-.71-2.13h3.21a1.81,1.81,0,0,0,.67,1.38,2.67,2.67,0,0,0,1.67.48,2.42,2.42,0,0,0,1.47-.37A1.16,1.16,0,0,0,496.6,67.73Z" transform="translate(-8.59 -12.01)"/><path class="cls-2" d="M504.45,55.28A1.68,1.68,0,0,1,505,54a1.88,1.88,0,0,1,1.38-.49,1.94,1.94,0,0,1,1.39.49,1.68,1.68,0,0,1,.51,1.26,1.65,1.65,0,0,1-.52,1.26,1.93,1.93,0,0,1-1.38.49,1.89,1.89,0,0,1-1.37-.49A1.65,1.65,0,0,1,504.45,55.28Zm3.59,16h-3.4V58.56H508Z" transform="translate(-8.59 -12.01)"/><path class="cls-2" d="M517.29,55.44v3.12h2.16V61h-2.16v6.33a1.53,1.53,0,0,0,.27,1,1.36,1.36,0,0,0,1,.3,5,5,0,0,0,1-.08v2.57a7,7,0,0,1-2.05.3q-3.56,0-3.63-3.6V61h-1.85V58.56h1.85V55.44Z" transform="translate(-8.59 -12.01)"/><path class="cls-2" d="M528.48,66.44l2.34-7.88h3.63l-5.1,14.65-.28.66a3.85,3.85,0,0,1-3.75,2.49,5.67,5.67,0,0,1-1.5-.22V73.57h.52a2.81,2.81,0,0,0,1.43-.29,1.94,1.94,0,0,0,.75-1l.4-1-4.44-12.71h3.64Z" transform="translate(-8.59 -12.01)"/><path class="cls-2" d="M544,64.57a17.07,17.07,0,0,1-.76,5.1A14,14,0,0,1,541.07,74,7.87,7.87,0,0,1,538,76.57l-.65-1.79A8.34,8.34,0,0,0,540,70.91a18.09,18.09,0,0,0,1-6v-.62a18.23,18.23,0,0,0-1-6.18,8.62,8.62,0,0,0-2.66-4L538,52.3a7.92,7.92,0,0,1,3,2.51A13.68,13.68,0,0,1,543.21,59a16.83,16.83,0,0,1,.81,5Z" transform="translate(-8.59 -12.01)"/><path d="M11.73,96.76a12,12,0,0,1,.48-3.41,9,9,0,0,1,1.4-2.86,5.27,5.27,0,0,1,2-1.73L16.07,90a5.37,5.37,0,0,0-1.78,2.61,12,12,0,0,0-.64,4.12V97a12.34,12.34,0,0,0,.63,4.14,5.49,5.49,0,0,0,1.79,2.65l-.44,1.2a5.22,5.22,0,0,1-2-1.69,8.76,8.76,0,0,1-1.4-2.78,11.62,11.62,0,0,1-.52-3.3Z" transform="translate(-8.59 -12.01)"/><path d="M24.85,96.45h-4.5v3h5.28v1.88H18V90h7.61v1.9H20.35v2.71h4.5Z" transform="translate(-8.59 -12.01)"/><path d="M32,99.05a.72.72,0,0,0-.41-.65A4.38,4.38,0,0,0,30.31,98c-2-.42-3-1.28-3-2.56a2.32,2.32,0,0,1,.93-1.88,3.78,3.78,0,0,1,2.44-.76,4.1,4.1,0,0,1,2.58.76,2.4,2.4,0,0,1,1,2H32a1.09,1.09,0,0,0-.32-.8,1.32,1.32,0,0,0-1-.32,1.39,1.39,0,0,0-.89.26.83.83,0,0,0-.31.66.68.68,0,0,0,.36.6,3.36,3.36,0,0,0,1.2.4,9.83,9.83,0,0,1,1.42.38A2.34,2.34,0,0,1,34.24,99a2.21,2.21,0,0,1-1,1.88,4.31,4.31,0,0,1-2.56.71,4.44,4.44,0,0,1-1.88-.38,3.15,3.15,0,0,1-1.3-1A2.42,2.42,0,0,1,27,98.7h2.14a1.18,1.18,0,0,0,.45.92,1.81,1.81,0,0,0,1.11.32,1.59,1.59,0,0,0,1-.25A.76.76,0,0,0,32,99.05Z" transform="translate(-8.59 -12.01)"/><path d="M39,90.85v2.08h1.45v1.66H39v4.22a1,1,0,0,0,.18.67.93.93,0,0,0,.69.2,4.23,4.23,0,0,0,.66-.05v1.71a4.81,4.81,0,0,1-1.36.2,2.16,2.16,0,0,1-2.43-2.4V94.59H35.51V92.93h1.23V90.85Z" transform="translate(-8.59 -12.01)"/><path d="M47.21,101.38a2.66,2.66,0,0,1-.23-.75,2.7,2.7,0,0,1-2.13.91,3,3,0,0,1-2.06-.72A2.31,2.31,0,0,1,42,99,2.39,2.39,0,0,1,43,97a4.9,4.9,0,0,1,2.88-.73h1v-.48a1.38,1.38,0,0,0-.3-.94,1.17,1.17,0,0,0-1-.35,1.33,1.33,0,0,0-.89.27.92.92,0,0,0-.33.75H42.16a2.23,2.23,0,0,1,.46-1.36,3,3,0,0,1,1.28-1,4.61,4.61,0,0,1,1.86-.36,3.71,3.71,0,0,1,2.48.79,2.75,2.75,0,0,1,.92,2.21v3.66a4,4,0,0,0,.33,1.82v.13Zm-1.87-1.57a2,2,0,0,0,.93-.22,1.5,1.5,0,0,0,.62-.6V97.54h-.84c-1.13,0-1.74.39-1.81,1.17v.13a.89.89,0,0,0,.3.7A1.17,1.17,0,0,0,45.34,99.81Z" transform="translate(-8.59 -12.01)"/><path d="M59.12,97.24a5.07,5.07,0,0,1-.87,3.16,2.88,2.88,0,0,1-2.42,1.14,2.65,2.65,0,0,1-2.2-1.05l-.1.89h-2v-12h2.26v4.31a2.56,2.56,0,0,1,2.05-.92,2.91,2.91,0,0,1,2.43,1.14,5.18,5.18,0,0,1,.88,3.2Zm-2.26-.17a3.36,3.36,0,0,0-.41-1.87,1.37,1.37,0,0,0-1.21-.59,1.48,1.48,0,0,0-1.48.88v3.34a1.5,1.5,0,0,0,1.5.89,1.39,1.39,0,0,0,1.43-1.08A5.49,5.49,0,0,0,56.86,97.07Z" transform="translate(-8.59 -12.01)"/><path d="M63.5,101.38H61.23v-12H63.5Z" transform="translate(-8.59 -12.01)"/><path d="M66,90.74a1.09,1.09,0,0,1,.34-.83,1.26,1.26,0,0,1,.92-.33,1.29,1.29,0,0,1,.93.33,1.09,1.09,0,0,1,.34.83,1.12,1.12,0,0,1-.35.85,1.28,1.28,0,0,1-.92.33,1.26,1.26,0,0,1-.91-.33A1.09,1.09,0,0,1,66,90.74Zm2.4,10.64H66.08V92.93h2.27Z" transform="translate(-8.59 -12.01)"/><path d="M75.39,99.05A.7.7,0,0,0,75,98.4,4.4,4.4,0,0,0,73.67,98c-2-.42-3-1.28-3-2.56a2.32,2.32,0,0,1,.93-1.88A3.81,3.81,0,0,1,74,92.77a4.07,4.07,0,0,1,2.57.76,2.4,2.4,0,0,1,1,2H75.31a1.09,1.09,0,0,0-.32-.8,1.3,1.3,0,0,0-1-.32,1.39,1.39,0,0,0-.89.26.83.83,0,0,0-.31.66.68.68,0,0,0,.36.6,3.36,3.36,0,0,0,1.2.4,9.83,9.83,0,0,1,1.42.38A2.34,2.34,0,0,1,77.59,99a2.23,2.23,0,0,1-1,1.88,4.36,4.36,0,0,1-2.57.71,4.48,4.48,0,0,1-1.88-.38,3.22,3.22,0,0,1-1.3-1,2.42,2.42,0,0,1-.47-1.42h2.15a1.17,1.17,0,0,0,.44.92,1.81,1.81,0,0,0,1.11.32,1.59,1.59,0,0,0,1-.25A.76.76,0,0,0,75.39,99.05Z" transform="translate(-8.59 -12.01)"/><path d="M81.85,93.85a2.82,2.82,0,0,1,2.26-1.08c1.83,0,2.76,1.07,2.79,3.2v5.41H84.64V96A1.55,1.55,0,0,0,84.33,95a1.36,1.36,0,0,0-1-.35,1.55,1.55,0,0,0-1.44.77v6H79.59v-12h2.26Z" transform="translate(-8.59 -12.01)"/><path d="M93.1,101.54a4.16,4.16,0,0,1-3-1.14,4,4,0,0,1-1.16-3v-.22a5.09,5.09,0,0,1,.49-2.28,3.65,3.65,0,0,1,1.39-1.54,3.94,3.94,0,0,1,2.06-.55,3.5,3.5,0,0,1,2.73,1.1,4.41,4.41,0,0,1,1,3.1v.92H91.19a2.17,2.17,0,0,0,.66,1.33,2,2,0,0,0,1.4.5,2.44,2.44,0,0,0,2-1L96.4,100A3.41,3.41,0,0,1,95,101.14,4.49,4.49,0,0,1,93.1,101.54Zm-.26-7a1.44,1.44,0,0,0-1.09.46,2.35,2.35,0,0,0-.53,1.3h3.14v-.18A1.66,1.66,0,0,0,94,95,1.44,1.44,0,0,0,92.84,94.59Z" transform="translate(-8.59 -12.01)"/><path d="M98.12,97.09A5.09,5.09,0,0,1,99,94a2.89,2.89,0,0,1,2.43-1.18,2.59,2.59,0,0,1,2,.93V89.38h2.26v12h-2l-.11-.89a2.65,2.65,0,0,1-2.17,1.05A2.85,2.85,0,0,1,99,100.36,5.25,5.25,0,0,1,98.12,97.09Zm2.25.17a3.33,3.33,0,0,0,.42,1.83,1.33,1.33,0,0,0,1.2.63,1.53,1.53,0,0,0,1.48-.88V95.49a1.5,1.5,0,0,0-1.46-.88C100.92,94.61,100.37,95.49,100.37,97.26Z" transform="translate(-8.59 -12.01)"/><path d="M120.3,97.24a5.07,5.07,0,0,1-.87,3.16,2.86,2.86,0,0,1-2.42,1.14,2.62,2.62,0,0,1-2.19-1.05l-.11.89h-2v-12h2.26v4.31a2.58,2.58,0,0,1,2.06-.92,2.89,2.89,0,0,1,2.42,1.14,5.12,5.12,0,0,1,.88,3.2ZM118,97.07a3.37,3.37,0,0,0-.4-1.87,1.4,1.4,0,0,0-1.22-.59,1.49,1.49,0,0,0-1.48.88v3.34a1.52,1.52,0,0,0,1.5.89,1.4,1.4,0,0,0,1.44-1.08A5.56,5.56,0,0,0,118,97.07Z" transform="translate(-8.59 -12.01)"/><path d="M125.37,98.19l1.56-5.26h2.42L126,102.7l-.19.44a2.58,2.58,0,0,1-2.5,1.66,3.52,3.52,0,0,1-1-.15v-1.71h.34a1.86,1.86,0,0,0,1-.2,1.29,1.29,0,0,0,.49-.65l.27-.69-3-8.48h2.43Z" transform="translate(-8.59 -12.01)"/><path d="M144.85,101.38h-2.34V96.51h-4.57v4.87h-2.35V90h2.35v4.61h4.57V90h2.34Z" transform="translate(-8.59 -12.01)"/><path d="M152.26,101.38a2.37,2.37,0,0,1-.23-.75,2.73,2.73,0,0,1-2.13.91,3,3,0,0,1-2.06-.72A2.29,2.29,0,0,1,147,99,2.37,2.37,0,0,1,148,97a4.85,4.85,0,0,1,2.88-.73h1v-.48a1.38,1.38,0,0,0-.31-.94,1.15,1.15,0,0,0-.94-.35,1.36,1.36,0,0,0-.9.27.91.91,0,0,0-.32.75h-2.26a2.29,2.29,0,0,1,.45-1.36,3,3,0,0,1,1.28-1,4.61,4.61,0,0,1,1.86-.36,3.71,3.71,0,0,1,2.48.79,2.75,2.75,0,0,1,.92,2.21v3.66a4.08,4.08,0,0,0,.34,1.82v.13Zm-1.87-1.57a1.92,1.92,0,0,0,.92-.22,1.52,1.52,0,0,0,.63-.6V97.54h-.85q-1.69,0-1.8,1.17v.13a.89.89,0,0,0,.3.7A1.13,1.13,0,0,0,150.39,99.81Z" transform="translate(-8.59 -12.01)"/><path d="M161.29,95.05a6.31,6.31,0,0,0-.81-.06,1.65,1.65,0,0,0-1.68.86v5.53h-2.26V92.93h2.14l.06,1a2.09,2.09,0,0,1,1.88-1.17,2.23,2.23,0,0,1,.7.11Z" transform="translate(-8.59 -12.01)"/><path d="M166.28,98.19l1.57-5.26h2.42l-3.4,9.77-.19.44a2.57,2.57,0,0,1-2.5,1.66,3.52,3.52,0,0,1-1-.15v-1.71h.35a1.84,1.84,0,0,0,.95-.2,1.31,1.31,0,0,0,.5-.65l.27-.69-3-8.48h2.43Z" transform="translate(-8.59 -12.01)"/><path d="M176.55,101.38a2.37,2.37,0,0,1-.23-.75,2.73,2.73,0,0,1-2.13.91,3,3,0,0,1-2.06-.72,2.32,2.32,0,0,1-.82-1.81,2.39,2.39,0,0,1,1-2.06,4.85,4.85,0,0,1,2.88-.73h1v-.48a1.38,1.38,0,0,0-.3-.94,1.17,1.17,0,0,0-1-.35,1.38,1.38,0,0,0-.9.27.94.94,0,0,0-.32.75H171.5a2.29,2.29,0,0,1,.45-1.36,3,3,0,0,1,1.29-1,4.61,4.61,0,0,1,1.86-.36,3.73,3.73,0,0,1,2.48.79,2.75,2.75,0,0,1,.91,2.21v3.66a4.08,4.08,0,0,0,.34,1.82v.13Zm-1.87-1.57a1.92,1.92,0,0,0,.92-.22,1.52,1.52,0,0,0,.63-.6V97.54h-.85q-1.69,0-1.8,1.17v.13a.89.89,0,0,0,.3.7A1.17,1.17,0,0,0,174.68,99.81Z" transform="translate(-8.59 -12.01)"/><path d="M182.91,92.93l.07,1a3,3,0,0,1,2.43-1.14,2.46,2.46,0,0,1,2,.79,3.69,3.69,0,0,1,.68,2.36v5.46h-2.26V96a1.53,1.53,0,0,0-.31-1,1.44,1.44,0,0,0-1-.32,1.54,1.54,0,0,0-1.43.81v6h-2.26V92.93Z" transform="translate(-8.59 -12.01)"/><path d="M195.3,101.38a2.38,2.38,0,0,1-.22-.75,2.74,2.74,0,0,1-2.14.91,3,3,0,0,1-2.05-.72,2.29,2.29,0,0,1-.82-1.81,2.39,2.39,0,0,1,1-2.06,4.9,4.9,0,0,1,2.88-.73h1v-.48a1.38,1.38,0,0,0-.3-.94,1.16,1.16,0,0,0-1-.35,1.33,1.33,0,0,0-.89.27.92.92,0,0,0-.33.75h-2.25a2.29,2.29,0,0,1,.45-1.36,3,3,0,0,1,1.28-1,4.61,4.61,0,0,1,1.86-.36,3.71,3.71,0,0,1,2.48.79,2.75,2.75,0,0,1,.92,2.21v3.66a4.1,4.1,0,0,0,.33,1.82v.13Zm-1.86-1.57a1.92,1.92,0,0,0,.92-.22A1.44,1.44,0,0,0,195,99V97.54h-.84c-1.13,0-1.73.39-1.81,1.17v.13a.92.92,0,0,0,.29.7A1.18,1.18,0,0,0,193.44,99.81Z" transform="translate(-8.59 -12.01)"/><path d="M210.23,98.4a1.22,1.22,0,0,0-.47-1,5.86,5.86,0,0,0-1.69-.75,11.56,11.56,0,0,1-1.93-.78A3.15,3.15,0,0,1,204.21,93a2.72,2.72,0,0,1,.52-1.64,3.35,3.35,0,0,1,1.49-1.13,5.61,5.61,0,0,1,2.18-.41,5.16,5.16,0,0,1,2.17.44,3.44,3.44,0,0,1,1.48,1.25,3.22,3.22,0,0,1,.53,1.83h-2.34a1.57,1.57,0,0,0-.49-1.22,2,2,0,0,0-1.39-.43,2.15,2.15,0,0,0-1.33.36,1.15,1.15,0,0,0-.48,1,1.1,1.1,0,0,0,.56.93,6.35,6.35,0,0,0,1.64.7,7,7,0,0,1,2.92,1.5,3,3,0,0,1,.91,2.21,2.73,2.73,0,0,1-1.12,2.32,4.86,4.86,0,0,1-3,.84,5.76,5.76,0,0,1-2.39-.48,3.79,3.79,0,0,1-1.65-1.32,3.33,3.33,0,0,1-.57-1.93h2.36c0,1.25.75,1.88,2.25,1.88a2.16,2.16,0,0,0,1.3-.34A1.11,1.11,0,0,0,210.23,98.4Z" transform="translate(-8.59 -12.01)"/><path d="M217.33,90.85v2.08h1.45v1.66h-1.45v4.22a1,1,0,0,0,.18.67.93.93,0,0,0,.69.2,4.23,4.23,0,0,0,.66-.05v1.71a4.83,4.83,0,0,1-1.37.2,2.16,2.16,0,0,1-2.42-2.4V94.59h-1.23V92.93h1.23V90.85Z" transform="translate(-8.59 -12.01)"/><path d="M225.54,101.38a2.66,2.66,0,0,1-.23-.75,2.7,2.7,0,0,1-2.13.91,3,3,0,0,1-2.06-.72,2.31,2.31,0,0,1-.81-1.81,2.39,2.39,0,0,1,1-2.06,4.9,4.9,0,0,1,2.88-.73h1v-.48a1.38,1.38,0,0,0-.3-.94,1.17,1.17,0,0,0-.95-.35,1.33,1.33,0,0,0-.89.27.92.92,0,0,0-.33.75h-2.26a2.23,2.23,0,0,1,.46-1.36,3,3,0,0,1,1.28-1,4.61,4.61,0,0,1,1.86-.36,3.71,3.71,0,0,1,2.48.79,2.75,2.75,0,0,1,.92,2.21v3.66a4,4,0,0,0,.33,1.82v.13Zm-1.87-1.57a1.9,1.9,0,0,0,.92-.22,1.47,1.47,0,0,0,.63-.6V97.54h-.84c-1.13,0-1.74.39-1.81,1.17v.13a.89.89,0,0,0,.3.7A1.17,1.17,0,0,0,223.67,99.81Z" transform="translate(-8.59 -12.01)"/><path d="M232.53,90.85v2.08H234v1.66h-1.45v4.22a1,1,0,0,0,.18.67.93.93,0,0,0,.69.2,4.23,4.23,0,0,0,.66-.05v1.71a4.83,4.83,0,0,1-1.37.2,2.16,2.16,0,0,1-2.42-2.4V94.59H229V92.93h1.23V90.85Z" transform="translate(-8.59 -12.01)"/><path d="M239.73,101.54a4.12,4.12,0,0,1-3-1.14,4,4,0,0,1-1.17-3v-.22a5.09,5.09,0,0,1,.49-2.28,3.65,3.65,0,0,1,1.39-1.54,4,4,0,0,1,2.06-.55,3.5,3.5,0,0,1,2.73,1.1,4.41,4.41,0,0,1,1,3.1v.92h-5.38a2.07,2.07,0,0,0,.66,1.33,2,2,0,0,0,1.39.5,2.44,2.44,0,0,0,2-1L243,100a3.41,3.41,0,0,1-1.38,1.12A4.43,4.43,0,0,1,239.73,101.54Zm-.26-7a1.44,1.44,0,0,0-1.09.46,2.43,2.43,0,0,0-.53,1.3H241v-.18a1.66,1.66,0,0,0-.41-1.16A1.44,1.44,0,0,0,239.47,94.59Z" transform="translate(-8.59 -12.01)"/><path d="M252.18,99.5h5v1.88h-7.32V90h2.34Z" transform="translate(-8.59 -12.01)"/><path d="M262.85,101.54a4.12,4.12,0,0,1-3-1.14,4,4,0,0,1-1.17-3v-.22a5.09,5.09,0,0,1,.49-2.28,3.65,3.65,0,0,1,1.39-1.54,4,4,0,0,1,2.06-.55,3.5,3.5,0,0,1,2.73,1.1,4.41,4.41,0,0,1,1,3.1v.92H261a2.07,2.07,0,0,0,.66,1.33,2,2,0,0,0,1.39.5,2.44,2.44,0,0,0,2-1l1.11,1.25a3.44,3.44,0,0,1-1.37,1.12A4.5,4.5,0,0,1,262.85,101.54Zm-.25-7a1.41,1.41,0,0,0-1.09.46,2.36,2.36,0,0,0-.54,1.3h3.14v-.18a1.66,1.66,0,0,0-.4-1.16A1.47,1.47,0,0,0,262.6,94.59Z" transform="translate(-8.59 -12.01)"/><path d="M267.89,97.09a4.94,4.94,0,0,1,.93-3.13,3,3,0,0,1,2.49-1.19,2.64,2.64,0,0,1,2.17,1l.09-.8h2.05v8.17a3.56,3.56,0,0,1-.51,1.93,3.12,3.12,0,0,1-1.41,1.25,5,5,0,0,1-2.14.43,4.63,4.63,0,0,1-1.82-.37,3.2,3.2,0,0,1-1.33-1l1-1.37a2.63,2.63,0,0,0,2,.94,1.93,1.93,0,0,0,1.4-.48,1.77,1.77,0,0,0,.5-1.36v-.45a2.59,2.59,0,0,1-2.05.88,3,3,0,0,1-2.47-1.19,5,5,0,0,1-.94-3.16Zm2.26.17a3.09,3.09,0,0,0,.46,1.81,1.48,1.48,0,0,0,1.27.65,1.57,1.57,0,0,0,1.47-.77V95.38a1.57,1.57,0,0,0-1.46-.77,1.47,1.47,0,0,0-1.28.67A3.45,3.45,0,0,0,270.15,97.26Z" transform="translate(-8.59 -12.01)"/><path d="M277.94,90.74a1.12,1.12,0,0,1,.34-.83,1.29,1.29,0,0,1,.93-.33,1.26,1.26,0,0,1,.92.33,1.09,1.09,0,0,1,.35.83,1.12,1.12,0,0,1-.35.85,1.45,1.45,0,0,1-1.84,0A1.12,1.12,0,0,1,277.94,90.74Zm2.4,10.64h-2.26V92.93h2.26Z" transform="translate(-8.59 -12.01)"/><path d="M287.39,99.05a.72.72,0,0,0-.41-.65,4.49,4.49,0,0,0-1.32-.43c-2-.42-3-1.28-3-2.56a2.32,2.32,0,0,1,.93-1.88,3.78,3.78,0,0,1,2.44-.76,4.12,4.12,0,0,1,2.58.76,2.4,2.4,0,0,1,1,2H287.3a1.09,1.09,0,0,0-.31-.8,1.33,1.33,0,0,0-1-.32,1.36,1.36,0,0,0-.88.26.81.81,0,0,0-.31.66.69.69,0,0,0,.35.6,3.51,3.51,0,0,0,1.2.4,9.16,9.16,0,0,1,1.42.38A2.33,2.33,0,0,1,289.58,99a2.23,2.23,0,0,1-1,1.88,4.31,4.31,0,0,1-2.56.71,4.52,4.52,0,0,1-1.89-.38,3.12,3.12,0,0,1-1.29-1,2.42,2.42,0,0,1-.47-1.42h2.14a1.18,1.18,0,0,0,.45.92,1.77,1.77,0,0,0,1.11.32,1.61,1.61,0,0,0,1-.25A.76.76,0,0,0,287.39,99.05Z" transform="translate(-8.59 -12.01)"/><path d="M294,101.38h-2.27v-12H294Z" transform="translate(-8.59 -12.01)"/><path d="M301.39,101.38a2.38,2.38,0,0,1-.22-.75,2.74,2.74,0,0,1-2.14.91,3,3,0,0,1-2-.72,2.29,2.29,0,0,1-.82-1.81,2.37,2.37,0,0,1,1-2.06,4.84,4.84,0,0,1,2.87-.73h1v-.48a1.38,1.38,0,0,0-.3-.94,1.16,1.16,0,0,0-.95-.35,1.33,1.33,0,0,0-.89.27.92.92,0,0,0-.33.75h-2.25a2.29,2.29,0,0,1,.45-1.36,3,3,0,0,1,1.28-1,4.61,4.61,0,0,1,1.86-.36,3.71,3.71,0,0,1,2.48.79,2.75,2.75,0,0,1,.92,2.21v3.66a4.1,4.1,0,0,0,.33,1.82v.13Zm-1.86-1.57a1.92,1.92,0,0,0,.92-.22,1.44,1.44,0,0,0,.62-.6V97.54h-.84c-1.13,0-1.73.39-1.81,1.17v.13a.92.92,0,0,0,.29.7A1.18,1.18,0,0,0,299.53,99.81Z" transform="translate(-8.59 -12.01)"/><path d="M308.38,90.85v2.08h1.45v1.66h-1.45v4.22a1,1,0,0,0,.18.67.93.93,0,0,0,.69.2,4.47,4.47,0,0,0,.67-.05v1.71a4.88,4.88,0,0,1-1.37.2,2.15,2.15,0,0,1-2.42-2.4V94.59h-1.24V92.93h1.24V90.85Z" transform="translate(-8.59 -12.01)"/><path d="M311.68,90.74a1.09,1.09,0,0,1,.34-.83,1.46,1.46,0,0,1,1.85,0,1.09,1.09,0,0,1,.34.83,1.12,1.12,0,0,1-.35.85,1.43,1.43,0,0,1-1.83,0A1.12,1.12,0,0,1,311.68,90.74Zm2.4,10.64h-2.27V92.93h2.27Z" transform="translate(-8.59 -12.01)"/><path d="M319.71,98.63l1.57-5.7h2.36l-2.85,8.45h-2.16l-2.85-8.45h2.36Z" transform="translate(-8.59 -12.01)"/><path d="M329,101.54a4.16,4.16,0,0,1-3-1.14,4,4,0,0,1-1.17-3v-.22a5.09,5.09,0,0,1,.5-2.28,3.58,3.58,0,0,1,1.39-1.54,3.94,3.94,0,0,1,2.06-.55,3.53,3.53,0,0,1,2.73,1.1,4.46,4.46,0,0,1,1,3.1v.92h-5.38a2.12,2.12,0,0,0,.66,1.33,2,2,0,0,0,1.4.5,2.44,2.44,0,0,0,2-1l1.11,1.25a3.41,3.41,0,0,1-1.38,1.12A4.49,4.49,0,0,1,329,101.54Zm-.26-7a1.43,1.43,0,0,0-1.09.46,2.28,2.28,0,0,0-.53,1.3h3.14v-.18a1.66,1.66,0,0,0-.41-1.16A1.44,1.44,0,0,0,328.77,94.59Z" transform="translate(-8.59 -12.01)"/><path d="M345.56,99h-4.11l-.78,2.34h-2.5L342.41,90h2.17l4.26,11.37h-2.49Zm-3.48-1.9h2.84l-1.43-4.26Z" transform="translate(-8.59 -12.01)"/><path d="M353.88,99.72a1.47,1.47,0,0,0,1-.34,1.22,1.22,0,0,0,.41-.92h2.12A3,3,0,0,1,357,100a3.2,3.2,0,0,1-1.27,1.11,4,4,0,0,1-1.76.39,3.65,3.65,0,0,1-2.86-1.15A4.56,4.56,0,0,1,350,97.2v-.14a4.46,4.46,0,0,1,1-3.12,3.61,3.61,0,0,1,2.85-1.17,3.56,3.56,0,0,1,2.54.91,3.22,3.22,0,0,1,1,2.4H355.3a1.54,1.54,0,0,0-.41-1.07,1.33,1.33,0,0,0-1-.42,1.37,1.37,0,0,0-1.19.58,3.31,3.31,0,0,0-.4,1.87v.23a3.34,3.34,0,0,0,.4,1.88A1.36,1.36,0,0,0,353.88,99.72Z" transform="translate(-8.59 -12.01)"/><path d="M362,90.85v2.08h1.44v1.66H362v4.22a1,1,0,0,0,.17.67.93.93,0,0,0,.69.2,4.47,4.47,0,0,0,.67-.05v1.71a4.88,4.88,0,0,1-1.37.2,2.16,2.16,0,0,1-2.42-2.4V94.59h-1.24V92.93h1.24V90.85Z" transform="translate(-8.59 -12.01)"/><path d="M379.32,101.38H377l-4.56-7.48v7.48h-2.34V90h2.34l4.57,7.5V90h2.34Z" transform="translate(-8.59 -12.01)"/><path d="M381.47,97.08a4.89,4.89,0,0,1,.49-2.24,3.5,3.5,0,0,1,1.39-1.53,4.06,4.06,0,0,1,2.11-.54,3.86,3.86,0,0,1,2.8,1,4.2,4.2,0,0,1,1.2,2.85l0,.57a4.38,4.38,0,0,1-1.09,3.12,3.74,3.74,0,0,1-2.91,1.18,3.8,3.8,0,0,1-2.92-1.17,4.54,4.54,0,0,1-1.09-3.19Zm2.26.16a3.16,3.16,0,0,0,.45,1.84,1.63,1.63,0,0,0,2.58,0,3.43,3.43,0,0,0,.46-2,3.15,3.15,0,0,0-.46-1.84,1.51,1.51,0,0,0-1.3-.65,1.48,1.48,0,0,0-1.28.65A3.54,3.54,0,0,0,383.73,97.24Z" transform="translate(-8.59 -12.01)"/><path d="M391.6,100.27a1.14,1.14,0,0,1,.36-.87,1.3,1.3,0,0,1,.91-.34,1.34,1.34,0,0,1,.92.34,1.14,1.14,0,0,1,.36.87,1.12,1.12,0,0,1-.36.87,1.31,1.31,0,0,1-.92.33,1.27,1.27,0,0,1-.91-.33A1.12,1.12,0,0,1,391.6,100.27Z" transform="translate(-8.59 -12.01)"/><path d="M409,101.38h-7.8V99.84l3.68-3.92A9.07,9.07,0,0,0,406,94.47a2.25,2.25,0,0,0,.37-1.17,1.71,1.71,0,0,0-.39-1.19,1.37,1.37,0,0,0-1.09-.44,1.51,1.51,0,0,0-1.21.53,2.1,2.1,0,0,0-.44,1.39H401a3.71,3.71,0,0,1,.49-1.9,3.53,3.53,0,0,1,1.41-1.35,4.28,4.28,0,0,1,2-.49,4,4,0,0,1,2.73.85,3,3,0,0,1,1,2.38,3.87,3.87,0,0,1-.43,1.72,10.38,10.38,0,0,1-1.5,2l-2.59,2.72H409Z" transform="translate(-8.59 -12.01)"/><path d="M416.51,101.38h-2.26v-8.7l-2.7.84V91.68L416.26,90h.25Z" transform="translate(-8.59 -12.01)"/><path d="M425.14,97.08a4.89,4.89,0,0,1,.49-2.24A3.56,3.56,0,0,1,427,93.31a4.08,4.08,0,0,1,2.12-.54,3.83,3.83,0,0,1,2.79,1,4.26,4.26,0,0,1,1.21,2.85v.57a4.42,4.42,0,0,1-1.08,3.12,4.22,4.22,0,0,1-5.84,0,4.54,4.54,0,0,1-1.09-3.19Zm2.26.16a3.16,3.16,0,0,0,.45,1.84,1.63,1.63,0,0,0,2.58,0,3.43,3.43,0,0,0,.46-2,3.15,3.15,0,0,0-.46-1.84,1.61,1.61,0,0,0-2.58,0A3.54,3.54,0,0,0,427.4,97.24Z" transform="translate(-8.59 -12.01)"/><path d="M435.77,101.38V94.59h-1.26V92.93h1.26v-.72a3,3,0,0,1,.81-2.21,3.19,3.19,0,0,1,2.29-.78,5.05,5.05,0,0,1,1.15.16l0,1.75a2.63,2.63,0,0,0-.68-.07c-.85,0-1.28.39-1.28,1.19v.68h1.68v1.66H438v6.79Z" transform="translate(-8.59 -12.01)"/><path d="M453.79,101.38H446V99.84l3.68-3.92a9.07,9.07,0,0,0,1.12-1.45,2.33,2.33,0,0,0,.36-1.17,1.7,1.7,0,0,0-.38-1.19,1.37,1.37,0,0,0-1.09-.44,1.51,1.51,0,0,0-1.21.53,2.1,2.1,0,0,0-.44,1.39h-2.27a3.72,3.72,0,0,1,.5-1.9,3.57,3.57,0,0,1,1.4-1.35,4.35,4.35,0,0,1,2.06-.49,4,4,0,0,1,2.73.85,3,3,0,0,1,1,2.38A3.89,3.89,0,0,1,453,94.8a9.62,9.62,0,0,1-1.5,2l-2.58,2.72h4.89Z" transform="translate(-8.59 -12.01)"/><path d="M463.43,96.68a5.77,5.77,0,0,1-1,3.61,3.91,3.91,0,0,1-5.71,0,5.58,5.58,0,0,1-1-3.51V94.7a5.67,5.67,0,0,1,1-3.61,3.39,3.39,0,0,1,2.84-1.24,3.45,3.45,0,0,1,2.85,1.23,5.56,5.56,0,0,1,1,3.51Zm-2.25-2.3a4.12,4.12,0,0,0-.39-2.06,1.31,1.31,0,0,0-1.21-.65,1.28,1.28,0,0,0-1.17.62,3.86,3.86,0,0,0-.41,1.92V97a4.4,4.4,0,0,0,.38,2.07,1.31,1.31,0,0,0,1.22.68,1.26,1.26,0,0,0,1.19-.65,4.17,4.17,0,0,0,.39-2Z" transform="translate(-8.59 -12.01)"/><path d="M473.22,96.68a5.77,5.77,0,0,1-1,3.61,3.91,3.91,0,0,1-5.71,0,5.58,5.58,0,0,1-1-3.51V94.7a5.67,5.67,0,0,1,1-3.61,3.89,3.89,0,0,1,5.69,0,5.5,5.5,0,0,1,1,3.51ZM471,94.38a4.13,4.13,0,0,0-.38-2.06,1.31,1.31,0,0,0-1.21-.65,1.28,1.28,0,0,0-1.17.62,3.86,3.86,0,0,0-.41,1.92V97a4.4,4.4,0,0,0,.38,2.07,1.3,1.3,0,0,0,1.22.68,1.26,1.26,0,0,0,1.19-.65,4.19,4.19,0,0,0,.38-2Z" transform="translate(-8.59 -12.01)"/><path d="M480.64,96.84a2.85,2.85,0,0,1-2.07.86,3,3,0,0,1-2.41-1,4.06,4.06,0,0,1-.91-2.79,4.4,4.4,0,0,1,.49-2,3.62,3.62,0,0,1,1.36-1.46,3.86,3.86,0,0,1,2-.52A3.59,3.59,0,0,1,482.43,92a5.81,5.81,0,0,1,.49,2.42v.83a6.58,6.58,0,0,1-1.41,4.47,5.39,5.39,0,0,1-4,1.74H477V99.61h.5C479.41,99.51,480.47,98.59,480.64,96.84ZM479.13,96a1.63,1.63,0,0,0,.94-.28,2,2,0,0,0,.6-.68v-.93a3.1,3.1,0,0,0-.44-1.78,1.34,1.34,0,0,0-1.17-.64,1.32,1.32,0,0,0-1.12.62,2.68,2.68,0,0,0-.44,1.56,2.54,2.54,0,0,0,.43,1.53A1.38,1.38,0,0,0,479.13,96Z" transform="translate(-8.59 -12.01)"/><path d="M489.52,98.32a2.56,2.56,0,0,1,.44-1.46,6,6,0,0,1,1.62-1.49,7.53,7.53,0,0,1-.8-1.28,2.86,2.86,0,0,1-.29-1.25,2.92,2.92,0,0,1,.84-2.16,3.1,3.1,0,0,1,2.26-.83,3,3,0,0,1,2.09.76,2.47,2.47,0,0,1,.82,1.89,3,3,0,0,1-1.38,2.4l-.87.63,2,2.28a4.3,4.3,0,0,0,.46-2h1.92a5.91,5.91,0,0,1-1,3.6l1.7,2h-2.56l-.59-.67a5.13,5.13,0,0,1-2.89.83,4,4,0,0,1-2.7-.89A2.92,2.92,0,0,1,489.52,98.32Zm3.82,1.4a2.87,2.87,0,0,0,1.54-.45l-2.24-2.59-.16.12a1.76,1.76,0,0,0-.7,1.39,1.5,1.5,0,0,0,.43,1.1A1.53,1.53,0,0,0,493.34,99.72Zm-.82-6.91a2.63,2.63,0,0,0,.68,1.48l.6-.4a2.06,2.06,0,0,0,.64-.58,1.2,1.2,0,0,0,.18-.67.94.94,0,0,0-.29-.68,1,1,0,0,0-.74-.29,1,1,0,0,0-.78.32A1.11,1.11,0,0,0,492.52,92.81Z" transform="translate(-8.59 -12.01)"/><path d="M509.89,97.22H508v4.16h-2.34V90h4.22a4.76,4.76,0,0,1,3.11.9,3.1,3.1,0,0,1,1.1,2.54,3.48,3.48,0,0,1-.51,1.94,3.4,3.4,0,0,1-1.52,1.24l2.46,4.64v.11H512ZM508,95.32h1.89a1.93,1.93,0,0,0,1.37-.45,1.61,1.61,0,0,0,.48-1.24,1.74,1.74,0,0,0-.45-1.26,1.92,1.92,0,0,0-1.41-.46H508Z" transform="translate(-8.59 -12.01)"/><path d="M520.24,101.54a4.16,4.16,0,0,1-3-1.14,4,4,0,0,1-1.17-3v-.22a5.23,5.23,0,0,1,.49-2.28,3.67,3.67,0,0,1,1.4-1.54,3.94,3.94,0,0,1,2.06-.55,3.53,3.53,0,0,1,2.73,1.1,4.46,4.46,0,0,1,1,3.1v.92h-5.38a2.07,2.07,0,0,0,.66,1.33,2,2,0,0,0,1.4.5,2.44,2.44,0,0,0,2-1l1.1,1.25a3.31,3.31,0,0,1-1.37,1.12A4.49,4.49,0,0,1,520.24,101.54Zm-.26-7a1.43,1.43,0,0,0-1.09.46,2.36,2.36,0,0,0-.54,1.3h3.15v-.18a1.71,1.71,0,0,0-.41-1.16A1.44,1.44,0,0,0,520,94.59Z" transform="translate(-8.59 -12.01)"/><path d="M529.12,99.72a1.45,1.45,0,0,0,1-.34,1.19,1.19,0,0,0,.41-.92h2.12a2.93,2.93,0,0,1-.47,1.58,3.24,3.24,0,0,1-1.26,1.11,4,4,0,0,1-1.77.39,3.66,3.66,0,0,1-2.86-1.15,4.56,4.56,0,0,1-1-3.19v-.14a4.5,4.5,0,0,1,1-3.12,4,4,0,0,1,5.4-.26,3.21,3.21,0,0,1,1,2.4h-2.12a1.5,1.5,0,0,0-.41-1.07,1.33,1.33,0,0,0-1-.42,1.38,1.38,0,0,0-1.19.58,3.31,3.31,0,0,0-.4,1.87v.23a3.34,3.34,0,0,0,.4,1.88A1.37,1.37,0,0,0,529.12,99.72Z" transform="translate(-8.59 -12.01)"/><path d="M534.2,97.08a4.89,4.89,0,0,1,.49-2.24,3.56,3.56,0,0,1,1.39-1.53,4.08,4.08,0,0,1,2.12-.54,3.83,3.83,0,0,1,2.79,1,4.26,4.26,0,0,1,1.21,2.85v.57a4.42,4.42,0,0,1-1.08,3.12,4.22,4.22,0,0,1-5.84,0,4.54,4.54,0,0,1-1.09-3.19Zm2.26.16a3.16,3.16,0,0,0,.45,1.84,1.5,1.5,0,0,0,1.3.64,1.48,1.48,0,0,0,1.28-.63,3.43,3.43,0,0,0,.46-2,3.15,3.15,0,0,0-.46-1.84,1.61,1.61,0,0,0-2.58,0A3.54,3.54,0,0,0,536.46,97.24Z" transform="translate(-8.59 -12.01)"/><path d="M543.88,97.09a4.94,4.94,0,0,1,.93-3.13,3,3,0,0,1,2.49-1.19,2.64,2.64,0,0,1,2.17,1l.09-.8h2.05v8.17a3.56,3.56,0,0,1-.51,1.93,3.12,3.12,0,0,1-1.41,1.25,5,5,0,0,1-2.14.43,4.63,4.63,0,0,1-1.82-.37,3.2,3.2,0,0,1-1.33-1l1-1.37a2.63,2.63,0,0,0,2,.94,1.93,1.93,0,0,0,1.4-.48,1.77,1.77,0,0,0,.5-1.36v-.45a2.59,2.59,0,0,1-2.05.88,3,3,0,0,1-2.47-1.19,5,5,0,0,1-.94-3.16Zm2.26.17a3.09,3.09,0,0,0,.46,1.81,1.48,1.48,0,0,0,1.27.65,1.57,1.57,0,0,0,1.47-.77V95.38a1.57,1.57,0,0,0-1.46-.77,1.47,1.47,0,0,0-1.28.67A3.45,3.45,0,0,0,546.14,97.26Z" transform="translate(-8.59 -12.01)"/><path d="M556,92.93l.07,1a2.93,2.93,0,0,1,2.43-1.14,2.48,2.48,0,0,1,2,.79,3.69,3.69,0,0,1,.67,2.36v5.46h-2.26V96a1.48,1.48,0,0,0-.31-1,1.42,1.42,0,0,0-1-.32,1.56,1.56,0,0,0-1.43.81v6H553.9V92.93Z" transform="translate(-8.59 -12.01)"/><path d="M563.5,90.74a1.12,1.12,0,0,1,.34-.83,1.29,1.29,0,0,1,.93-.33,1.26,1.26,0,0,1,.92.33,1.09,1.09,0,0,1,.35.83,1.12,1.12,0,0,1-.35.85,1.45,1.45,0,0,1-1.84,0A1.12,1.12,0,0,1,563.5,90.74Zm2.4,10.64h-2.26V92.93h2.26Z" transform="translate(-8.59 -12.01)"/><path d="M573,99.05a.72.72,0,0,0-.41-.65,4.49,4.49,0,0,0-1.32-.43c-2-.42-3-1.28-3-2.56a2.32,2.32,0,0,1,.93-1.88,3.78,3.78,0,0,1,2.44-.76,4.12,4.12,0,0,1,2.58.76,2.4,2.4,0,0,1,1,2h-2.26a1.09,1.09,0,0,0-.31-.8,1.33,1.33,0,0,0-1-.32,1.36,1.36,0,0,0-.88.26.81.81,0,0,0-.31.66.69.69,0,0,0,.35.6,3.51,3.51,0,0,0,1.2.4,9.16,9.16,0,0,1,1.42.38A2.33,2.33,0,0,1,575.14,99a2.23,2.23,0,0,1-1,1.88,4.31,4.31,0,0,1-2.56.71,4.52,4.52,0,0,1-1.89-.38,3.12,3.12,0,0,1-1.29-1,2.42,2.42,0,0,1-.47-1.42h2.14a1.18,1.18,0,0,0,.45.92,1.77,1.77,0,0,0,1.11.32,1.61,1.61,0,0,0,1-.25A.76.76,0,0,0,573,99.05Z" transform="translate(-8.59 -12.01)"/><path d="M581.1,101.54a4.16,4.16,0,0,1-3-1.14,4,4,0,0,1-1.17-3v-.22a5.09,5.09,0,0,1,.49-2.28,3.67,3.67,0,0,1,1.4-1.54,3.94,3.94,0,0,1,2.06-.55,3.53,3.53,0,0,1,2.73,1.1,4.46,4.46,0,0,1,1,3.1v.92h-5.38a2.07,2.07,0,0,0,.66,1.33,2,2,0,0,0,1.39.5,2.44,2.44,0,0,0,2-1l1.11,1.25a3.38,3.38,0,0,1-1.37,1.12A4.49,4.49,0,0,1,581.1,101.54Zm-.26-7a1.43,1.43,0,0,0-1.09.46,2.36,2.36,0,0,0-.54,1.3h3.14v-.18A1.66,1.66,0,0,0,582,95,1.44,1.44,0,0,0,580.84,94.59Z" transform="translate(-8.59 -12.01)"/><path d="M586.11,97.09A5.09,5.09,0,0,1,587,94a2.88,2.88,0,0,1,2.42-1.18,2.58,2.58,0,0,1,2,.93V89.38h2.27v12h-2l-.11-.89a2.66,2.66,0,0,1-2.17,1.05,2.86,2.86,0,0,1-2.4-1.18A5.25,5.25,0,0,1,586.11,97.09Zm2.26.17a3.33,3.33,0,0,0,.41,1.83,1.36,1.36,0,0,0,1.2.63,1.53,1.53,0,0,0,1.48-.88V95.49a1.5,1.5,0,0,0-1.46-.88C588.91,94.61,588.37,95.49,588.37,97.26Z" transform="translate(-8.59 -12.01)"/><path d="M608.29,97.24a5.14,5.14,0,0,1-.86,3.16,2.88,2.88,0,0,1-2.43,1.14,2.65,2.65,0,0,1-2.19-1.05l-.1.89h-2v-12h2.25v4.31a2.6,2.6,0,0,1,2.06-.92,2.91,2.91,0,0,1,2.43,1.14,5.18,5.18,0,0,1,.87,3.2ZM606,97.07a3.36,3.36,0,0,0-.41-1.87,1.37,1.37,0,0,0-1.21-.59,1.5,1.5,0,0,0-1.49.88v3.34a1.52,1.52,0,0,0,1.5.89,1.4,1.4,0,0,0,1.44-1.08A5.49,5.49,0,0,0,606,97.07Z" transform="translate(-8.59 -12.01)"/><path d="M613.36,98.19l1.57-5.26h2.42L614,102.7l-.19.44a2.57,2.57,0,0,1-2.5,1.66,3.52,3.52,0,0,1-1-.15v-1.71h.35a1.84,1.84,0,0,0,.95-.2,1.31,1.31,0,0,0,.5-.65l.26-.69-3-8.48h2.43Z" transform="translate(-8.59 -12.01)"/><path d="M632.2,90V97.5a3.81,3.81,0,0,1-1.17,3,4.47,4.47,0,0,1-3.19,1.09,4.58,4.58,0,0,1-3.17-1.05,3.76,3.76,0,0,1-1.19-2.9V90h2.34v7.51a2.18,2.18,0,0,0,.54,1.63,2,2,0,0,0,1.48.51c1.31,0,2-.7,2-2.08V90Z" transform="translate(-8.59 -12.01)"/><path d="M643.73,100a4.17,4.17,0,0,1-1.79,1.17,7.47,7.47,0,0,1-2.56.42,5.05,5.05,0,0,1-2.59-.64A4.25,4.25,0,0,1,635.07,99a6.44,6.44,0,0,1-.62-2.88v-.77a7,7,0,0,1,.57-3,4.2,4.2,0,0,1,1.66-1.91,5.44,5.44,0,0,1,5.7.31,4.12,4.12,0,0,1,1.35,2.81h-2.28a2.26,2.26,0,0,0-.7-1.43,2.14,2.14,0,0,0-1.47-.46,2.08,2.08,0,0,0-1.82.9,4.66,4.66,0,0,0-.63,2.67V96a4.45,4.45,0,0,0,.68,2.7,2.32,2.32,0,0,0,2,.92,2.56,2.56,0,0,0,1.88-.57v-2h-2.13V95.41h4.48Z" transform="translate(-8.59 -12.01)"/><path d="M655.16,97.59a4.07,4.07,0,0,1-1.35,2.9,4.79,4.79,0,0,1-3.23,1.05,4.3,4.3,0,0,1-3.44-1.47,6.07,6.07,0,0,1-1.25-4v-.69a6.75,6.75,0,0,1,.58-2.89,4.32,4.32,0,0,1,1.65-1.92,4.67,4.67,0,0,1,2.5-.67,4.6,4.6,0,0,1,3.17,1.06,4.35,4.35,0,0,1,1.39,3h-2.35a2.34,2.34,0,0,0-.61-1.6,2.27,2.27,0,0,0-1.6-.5,2,2,0,0,0-1.76.84,4.69,4.69,0,0,0-.6,2.61v.86a5,5,0,0,0,.56,2.69,2,2,0,0,0,1.76.86,2.34,2.34,0,0,0,1.63-.5,2.26,2.26,0,0,0,.61-1.54Z" transform="translate(-8.59 -12.01)"/><path d="M668.32,99h-4.11l-.78,2.34h-2.49L665.18,90h2.17l4.26,11.37h-2.5Zm-3.47-1.9h2.84l-1.43-4.26Z" transform="translate(-8.59 -12.01)"/><path d="M676.64,99.72a1.48,1.48,0,0,0,1-.34,1.21,1.21,0,0,0,.4-.92h2.12a2.84,2.84,0,0,1-.47,1.58,3.1,3.1,0,0,1-1.26,1.11,4,4,0,0,1-1.77.39,3.66,3.66,0,0,1-2.86-1.15,4.56,4.56,0,0,1-1-3.19v-.14a4.5,4.5,0,0,1,1-3.12,3.64,3.64,0,0,1,2.86-1.17,3.57,3.57,0,0,1,2.54.91,3.18,3.18,0,0,1,1,2.4h-2.12a1.53,1.53,0,0,0-.4-1.07,1.49,1.49,0,0,0-2.22.16A3.3,3.3,0,0,0,675,97v.23a3.43,3.43,0,0,0,.4,1.88A1.38,1.38,0,0,0,676.64,99.72Z" transform="translate(-8.59 -12.01)"/><path d="M684.78,90.85v2.08h1.45v1.66h-1.45v4.22a1,1,0,0,0,.18.67.93.93,0,0,0,.69.2,4.23,4.23,0,0,0,.66-.05v1.71a4.76,4.76,0,0,1-1.36.2,2.16,2.16,0,0,1-2.43-2.4V94.59h-1.23V92.93h1.23V90.85Z" transform="translate(-8.59 -12.01)"/><path d="M698.08,101.38h-2.26v-8.7l-2.7.84V91.68L697.83,90h.25Z" transform="translate(-8.59 -12.01)"/><path d="M707.66,96.84a2.84,2.84,0,0,1-2.06.86,3.06,3.06,0,0,1-2.42-1,4.1,4.1,0,0,1-.9-2.79,4.28,4.28,0,0,1,.49-2,3.55,3.55,0,0,1,1.36-1.46,3.84,3.84,0,0,1,2-.52,3.6,3.6,0,0,1,2,.57A3.74,3.74,0,0,1,709.46,92a6,6,0,0,1,.49,2.42v.83a6.58,6.58,0,0,1-1.41,4.47,5.4,5.4,0,0,1-4,1.74H704V99.61h.5C706.44,99.51,707.5,98.59,707.66,96.84ZM706.15,96a1.61,1.61,0,0,0,.94-.28,1.84,1.84,0,0,0,.6-.68v-.93a3,3,0,0,0-.44-1.78,1.36,1.36,0,0,0-2.29,0,2.68,2.68,0,0,0-.43,1.56,2.61,2.61,0,0,0,.42,1.53A1.4,1.4,0,0,0,706.15,96Z" transform="translate(-8.59 -12.01)"/><path d="M712.5,95.79l.66-5.78h6.37v1.88H715l-.28,2.45a3.56,3.56,0,0,1,1.71-.43,3.27,3.27,0,0,1,2.55,1,4,4,0,0,1,.92,2.82,4.13,4.13,0,0,1-.47,2,3.26,3.26,0,0,1-1.33,1.35,4.16,4.16,0,0,1-2,.48,4.42,4.42,0,0,1-1.92-.42,3.4,3.4,0,0,1-1.39-1.17,3.23,3.23,0,0,1-.55-1.73h2.24a1.74,1.74,0,0,0,.49,1.11,1.61,1.61,0,0,0,1.12.39,1.39,1.39,0,0,0,1.18-.55,2.61,2.61,0,0,0,.41-1.56,2.08,2.08,0,0,0-.48-1.48,1.71,1.71,0,0,0-1.35-.52,2,2,0,0,0-1.3.42l-.22.21Z" transform="translate(-8.59 -12.01)"/><path d="M728.08,89.89v1.86h-.22a3.82,3.82,0,0,0-2.46.8,3.17,3.17,0,0,0-1.12,2.15,3,3,0,0,1,2.28-.93,2.89,2.89,0,0,1,2.36,1.07,4.68,4.68,0,0,1,.4,4.8A3.46,3.46,0,0,1,728,101a4,4,0,0,1-2,.5,3.7,3.7,0,0,1-2.9-1.25A4.85,4.85,0,0,1,722,97v-.81a7.42,7.42,0,0,1,.7-3.27,5.2,5.2,0,0,1,2-2.19,5.9,5.9,0,0,1,3-.79Zm-2.2,5.7a1.83,1.83,0,0,0-1,.29,1.75,1.75,0,0,0-.65.75v.69a3.07,3.07,0,0,0,.44,1.76,1.52,1.52,0,0,0,2.43.07,2.71,2.71,0,0,0,0-3A1.49,1.49,0,0,0,725.88,95.59Z" transform="translate(-8.59 -12.01)"/><path d="M741.49,100.52a2.83,2.83,0,0,1-2.31,1,2.69,2.69,0,0,1-2.08-.78,3.38,3.38,0,0,1-.73-2.29V92.93h2.26V98.4q0,1.32,1.2,1.32a1.63,1.63,0,0,0,1.58-.8v-6h2.27v8.45h-2.13Z" transform="translate(-8.59 -12.01)"/><path d="M746.7,102.36H745L749.21,90h1.68Z" transform="translate(-8.59 -12.01)"/><path d="M757.15,99.05a.7.7,0,0,0-.41-.65,4.4,4.4,0,0,0-1.31-.43c-2-.42-3-1.28-3-2.56a2.32,2.32,0,0,1,.93-1.88,3.81,3.81,0,0,1,2.45-.76,4.07,4.07,0,0,1,2.57.76,2.4,2.4,0,0,1,1,2h-2.25a1.09,1.09,0,0,0-.32-.8,1.3,1.3,0,0,0-1-.32,1.39,1.39,0,0,0-.89.26.83.83,0,0,0-.31.66.68.68,0,0,0,.36.6,3.36,3.36,0,0,0,1.2.4,9.83,9.83,0,0,1,1.42.38A2.34,2.34,0,0,1,759.35,99a2.23,2.23,0,0,1-1,1.88,4.36,4.36,0,0,1-2.57.71,4.48,4.48,0,0,1-1.88-.38,3.22,3.22,0,0,1-1.3-1,2.42,2.42,0,0,1-.47-1.42h2.15a1.17,1.17,0,0,0,.44.92,1.81,1.81,0,0,0,1.11.32,1.59,1.59,0,0,0,1-.25A.76.76,0,0,0,757.15,99.05Z" transform="translate(-8.59 -12.01)"/><path d="M773.7,101.38h-7.79V99.84l3.68-3.92a9.7,9.7,0,0,0,1.12-1.45,2.33,2.33,0,0,0,.36-1.17,1.75,1.75,0,0,0-.38-1.19,1.39,1.39,0,0,0-1.1-.44,1.48,1.48,0,0,0-1.2.53,2.05,2.05,0,0,0-.44,1.39h-2.27a3.72,3.72,0,0,1,.5-1.9,3.5,3.5,0,0,1,1.4-1.35,4.31,4.31,0,0,1,2-.49,4,4,0,0,1,2.73.85,3,3,0,0,1,1,2.38,3.89,3.89,0,0,1-.44,1.72,9.62,9.62,0,0,1-1.5,2l-2.59,2.72h4.89Z" transform="translate(-8.59 -12.01)"/><path d="M783.49,101.38H775.7V99.84l3.68-3.92a10.43,10.43,0,0,0,1.12-1.45,2.33,2.33,0,0,0,.36-1.17,1.75,1.75,0,0,0-.38-1.19,1.39,1.39,0,0,0-1.1-.44,1.48,1.48,0,0,0-1.2.53,2.06,2.06,0,0,0-.45,1.39h-2.26a3.71,3.71,0,0,1,.49-1.9,3.59,3.59,0,0,1,1.41-1.35,4.31,4.31,0,0,1,2-.49,4,4,0,0,1,2.73.85,3,3,0,0,1,1,2.38,3.87,3.87,0,0,1-.43,1.72,9.62,9.62,0,0,1-1.5,2l-2.59,2.72h4.89Z" transform="translate(-8.59 -12.01)"/><path d="M792.87,90.85v2.08h1.45v1.66h-1.45v4.22a1,1,0,0,0,.18.67.93.93,0,0,0,.69.2,4.23,4.23,0,0,0,.66-.05v1.71a4.81,4.81,0,0,1-1.36.2,2.16,2.16,0,0,1-2.43-2.4V94.59h-1.23V92.93h1.23V90.85Z" transform="translate(-8.59 -12.01)"/><path d="M795.6,97.08a5,5,0,0,1,.48-2.24,3.58,3.58,0,0,1,1.4-1.53,4,4,0,0,1,2.11-.54,3.83,3.83,0,0,1,2.79,1,4.21,4.21,0,0,1,1.21,2.85l0,.57a4.42,4.42,0,0,1-1.09,3.12,4.2,4.2,0,0,1-5.83,0,4.49,4.49,0,0,1-1.09-3.19Zm2.26.16a3.16,3.16,0,0,0,.45,1.84,1.48,1.48,0,0,0,1.3.64,1.51,1.51,0,0,0,1.28-.63,3.51,3.51,0,0,0,.46-2,3.23,3.23,0,0,0-.46-1.84,1.51,1.51,0,0,0-1.3-.65,1.48,1.48,0,0,0-1.28.65A3.54,3.54,0,0,0,797.86,97.24Z" transform="translate(-8.59 -12.01)"/><path d="M819.27,97.59a4,4,0,0,1-1.35,2.9,4.78,4.78,0,0,1-3.22,1.05,4.31,4.31,0,0,1-3.45-1.47A6.07,6.07,0,0,1,810,96v-.69a6.75,6.75,0,0,1,.58-2.89,4.38,4.38,0,0,1,1.65-1.92,4.69,4.69,0,0,1,2.5-.67,4.6,4.6,0,0,1,3.17,1.06,4.31,4.31,0,0,1,1.39,3H817a2.39,2.39,0,0,0-.62-1.6,2.26,2.26,0,0,0-1.6-.5,2,2,0,0,0-1.76.84,4.79,4.79,0,0,0-.59,2.61v.86a5,5,0,0,0,.55,2.69,2,2,0,0,0,1.77.86,2.33,2.33,0,0,0,1.62-.5,2.26,2.26,0,0,0,.61-1.54Z" transform="translate(-8.59 -12.01)"/><path d="M820.92,97.08a4.89,4.89,0,0,1,.49-2.24,3.5,3.5,0,0,1,1.39-1.53,4.06,4.06,0,0,1,2.11-.54,3.87,3.87,0,0,1,2.8,1,4.2,4.2,0,0,1,1.2,2.85l0,.57a4.38,4.38,0,0,1-1.09,3.12,3.74,3.74,0,0,1-2.91,1.18,3.8,3.8,0,0,1-2.92-1.17,4.49,4.49,0,0,1-1.09-3.19Zm2.26.16a3.16,3.16,0,0,0,.45,1.84,1.63,1.63,0,0,0,2.58,0,3.43,3.43,0,0,0,.46-2,3.15,3.15,0,0,0-.46-1.84,1.51,1.51,0,0,0-1.3-.65,1.48,1.48,0,0,0-1.28.65A3.54,3.54,0,0,0,823.18,97.24Z" transform="translate(-8.59 -12.01)"/><path d="M833,92.93l.07,1a2.93,2.93,0,0,1,2.43-1.14,2.48,2.48,0,0,1,2,.79,3.75,3.75,0,0,1,.67,2.36v5.46h-2.26V96a1.48,1.48,0,0,0-.31-1,1.44,1.44,0,0,0-1-.32,1.55,1.55,0,0,0-1.43.81v6h-2.26V92.93Z" transform="translate(-8.59 -12.01)"/><path d="M841.11,101.38V94.59h-1.25V92.93h1.25v-.72a3,3,0,0,1,.82-2.21,3.18,3.18,0,0,1,2.29-.78,4.9,4.9,0,0,1,1.14.16l0,1.75a2.77,2.77,0,0,0-.69-.07c-.85,0-1.27.39-1.27,1.19v.68h1.68v1.66h-1.68v6.79Z" transform="translate(-8.59 -12.01)"/><path d="M850.54,101.54a4.16,4.16,0,0,1-3-1.14,4.08,4.08,0,0,1-1.16-3v-.22a5.09,5.09,0,0,1,.49-2.28,3.65,3.65,0,0,1,1.39-1.54,3.94,3.94,0,0,1,2.06-.55,3.5,3.5,0,0,1,2.73,1.1,4.41,4.41,0,0,1,1,3.1v.92h-5.38a2.07,2.07,0,0,0,.66,1.33,2,2,0,0,0,1.39.5,2.44,2.44,0,0,0,2-1l1.11,1.25a3.41,3.41,0,0,1-1.38,1.12A4.43,4.43,0,0,1,850.54,101.54Zm-.26-7a1.44,1.44,0,0,0-1.09.46,2.43,2.43,0,0,0-.53,1.3h3.14v-.18a1.66,1.66,0,0,0-.41-1.16A1.44,1.44,0,0,0,850.28,94.59Z" transform="translate(-8.59 -12.01)"/><path d="M860.66,95.05a6.44,6.44,0,0,0-.81-.06,1.64,1.64,0,0,0-1.68.86v5.53h-2.26V92.93H858l.06,1A2.1,2.1,0,0,1,860,92.77a2.28,2.28,0,0,1,.7.11Z" transform="translate(-8.59 -12.01)"/><path d="M867.09,101.38V90h3.5a5.34,5.34,0,0,1,2.69.67,4.69,4.69,0,0,1,1.84,1.93,5.83,5.83,0,0,1,.67,2.83V96a6,6,0,0,1-.65,2.82,4.73,4.73,0,0,1-1.84,1.92,5.37,5.37,0,0,1-2.68.68Zm2.35-9.47V99.5h1.13a2.53,2.53,0,0,0,2.1-.9,4,4,0,0,0,.74-2.57v-.6a4.12,4.12,0,0,0-.72-2.63,2.55,2.55,0,0,0-2.1-.89Z" transform="translate(-8.59 -12.01)"/><path d="M881.84,101.54a4.16,4.16,0,0,1-3-1.14,4.08,4.08,0,0,1-1.16-3v-.22a5.09,5.09,0,0,1,.49-2.28,3.65,3.65,0,0,1,1.39-1.54,3.94,3.94,0,0,1,2.06-.55,3.5,3.5,0,0,1,2.73,1.1,4.41,4.41,0,0,1,1,3.1v.92h-5.38a2.07,2.07,0,0,0,.66,1.33,2,2,0,0,0,1.39.5,2.44,2.44,0,0,0,2-1l1.11,1.25a3.41,3.41,0,0,1-1.38,1.12A4.46,4.46,0,0,1,881.84,101.54Zm-.26-7a1.44,1.44,0,0,0-1.09.46,2.43,2.43,0,0,0-.53,1.3h3.14v-.18a1.66,1.66,0,0,0-.41-1.16A1.44,1.44,0,0,0,881.58,94.59Z" transform="translate(-8.59 -12.01)"/><path d="M886.88,97.09A5,5,0,0,1,887.8,94a3,3,0,0,1,2.5-1.19,2.6,2.6,0,0,1,2.16,1l.1-.8h2.05v8.17a3.56,3.56,0,0,1-.51,1.93,3.15,3.15,0,0,1-1.42,1.25,4.93,4.93,0,0,1-2.14.43,4.58,4.58,0,0,1-1.81-.37,3.31,3.31,0,0,1-1.34-1l1-1.37a2.66,2.66,0,0,0,2.05.94,1.93,1.93,0,0,0,1.4-.48,1.8,1.8,0,0,0,.5-1.36v-.45a2.61,2.61,0,0,1-2.05.88,3,3,0,0,1-2.47-1.19,5,5,0,0,1-.94-3.16Zm2.26.17a3.09,3.09,0,0,0,.46,1.81,1.48,1.48,0,0,0,1.26.65,1.58,1.58,0,0,0,1.48-.77V95.38a1.57,1.57,0,0,0-1.46-.77,1.47,1.47,0,0,0-1.28.67A3.45,3.45,0,0,0,889.14,97.26Z" transform="translate(-8.59 -12.01)"/><path d="M901.7,95.05a6.44,6.44,0,0,0-.81-.06,1.64,1.64,0,0,0-1.68.86v5.53H897V92.93h2.13l.06,1A2.1,2.1,0,0,1,901,92.77a2.28,2.28,0,0,1,.7.11Z" transform="translate(-8.59 -12.01)"/><path d="M907.13,101.54a4.12,4.12,0,0,1-3-1.14,4,4,0,0,1-1.17-3v-.22a5.09,5.09,0,0,1,.49-2.28,3.61,3.61,0,0,1,1.4-1.54,3.9,3.9,0,0,1,2-.55,3.5,3.5,0,0,1,2.73,1.1,4.41,4.41,0,0,1,1,3.1v.92h-5.38a2.07,2.07,0,0,0,.66,1.33,2,2,0,0,0,1.39.5,2.44,2.44,0,0,0,2-1l1.11,1.25a3.44,3.44,0,0,1-1.37,1.12A4.5,4.5,0,0,1,907.13,101.54Zm-.25-7a1.41,1.41,0,0,0-1.09.46,2.36,2.36,0,0,0-.54,1.3h3.14v-.18A1.66,1.66,0,0,0,908,95,1.45,1.45,0,0,0,906.88,94.59Z" transform="translate(-8.59 -12.01)"/><path d="M916.39,101.54a4.16,4.16,0,0,1-3-1.14,4,4,0,0,1-1.16-3v-.22a5.09,5.09,0,0,1,.49-2.28,3.65,3.65,0,0,1,1.39-1.54,3.94,3.94,0,0,1,2.06-.55,3.5,3.5,0,0,1,2.73,1.1,4.41,4.41,0,0,1,1,3.1v.92h-5.39a2.17,2.17,0,0,0,.66,1.33,2,2,0,0,0,1.4.5,2.44,2.44,0,0,0,2-1l1.11,1.25a3.41,3.41,0,0,1-1.38,1.12A4.49,4.49,0,0,1,916.39,101.54Zm-.26-7a1.43,1.43,0,0,0-1.09.46,2.35,2.35,0,0,0-.53,1.3h3.14v-.18a1.66,1.66,0,0,0-.41-1.16A1.44,1.44,0,0,0,916.13,94.59Z" transform="translate(-8.59 -12.01)"/><path d="M926.33,99.05a.7.7,0,0,0-.41-.65,4.4,4.4,0,0,0-1.31-.43c-2-.42-3-1.28-3-2.56a2.31,2.31,0,0,1,.94-1.88,3.77,3.77,0,0,1,2.44-.76,4.07,4.07,0,0,1,2.57.76,2.41,2.41,0,0,1,1,2h-2.26a1.13,1.13,0,0,0-.31-.8,1.64,1.64,0,0,0-1.86-.06.81.81,0,0,0-.32.66.68.68,0,0,0,.36.6,3.51,3.51,0,0,0,1.2.4,9.83,9.83,0,0,1,1.42.38A2.34,2.34,0,0,1,928.53,99a2.23,2.23,0,0,1-1,1.88,4.34,4.34,0,0,1-2.57.71,4.51,4.51,0,0,1-1.88-.38,3.22,3.22,0,0,1-1.3-1,2.41,2.41,0,0,1-.46-1.42h2.14a1.2,1.2,0,0,0,.44.92,1.81,1.81,0,0,0,1.11.32,1.59,1.59,0,0,0,1-.25A.76.76,0,0,0,926.33,99.05Z" transform="translate(-8.59 -12.01)"/><path d="M934.48,96.94a11.34,11.34,0,0,1-.51,3.4,9.09,9.09,0,0,1-1.46,2.88,5.2,5.2,0,0,1-2,1.72l-.43-1.2a5.45,5.45,0,0,0,1.75-2.57,12.29,12.29,0,0,0,.66-4v-.42a12,12,0,0,0-.64-4.11A5.73,5.73,0,0,0,930,90l.43-1.19a5.28,5.28,0,0,1,2,1.67,9.19,9.19,0,0,1,1.46,2.82,11,11,0,0,1,.54,3.34Z" transform="translate(-8.59 -12.01)"/><path class="cls-3" d="M20.38,126.87H14.73l-1.08,3.22H10.22l5.83-15.64h3l5.86,15.64H21.46Zm-4.78-2.61h3.91l-2-5.85Z" transform="translate(-8.59 -12.01)"/><path class="cls-3" d="M33.18,127.81a2,2,0,0,0,1.39-.48,1.62,1.62,0,0,0,.56-1.25H38a3.93,3.93,0,0,1-.64,2.16,4.29,4.29,0,0,1-1.73,1.53,5.49,5.49,0,0,1-2.44.54,5,5,0,0,1-3.93-1.59,6.24,6.24,0,0,1-1.44-4.37v-.21a6.18,6.18,0,0,1,1.43-4.28,5,5,0,0,1,3.92-1.6,4.9,4.9,0,0,1,3.5,1.24A4.37,4.37,0,0,1,38,122.8H35.13a2.09,2.09,0,0,0-.56-1.47,1.84,1.84,0,0,0-1.41-.57,1.86,1.86,0,0,0-1.64.79,4.58,4.58,0,0,0-.55,2.57v.32a4.67,4.67,0,0,0,.54,2.58A1.91,1.91,0,0,0,33.18,127.81Z" transform="translate(-8.59 -12.01)"/><path class="cls-3" d="M46.85,127.81a2,2,0,0,0,1.4-.48,1.69,1.69,0,0,0,.56-1.25h2.91a4,4,0,0,1-.65,2.16,4.29,4.29,0,0,1-1.73,1.53,5.49,5.49,0,0,1-2.44.54A5,5,0,0,1,43,128.72a6.24,6.24,0,0,1-1.44-4.37v-.21A6.18,6.18,0,0,1,43,119.86a5,5,0,0,1,3.92-1.6,4.88,4.88,0,0,1,3.5,1.24,4.38,4.38,0,0,1,1.34,3.3H48.81a2.18,2.18,0,0,0-.56-1.47,2.08,2.08,0,0,0-3.06.22,4.58,4.58,0,0,0-.55,2.57v.32a4.58,4.58,0,0,0,.55,2.58A1.9,1.9,0,0,0,46.85,127.81Z" transform="translate(-8.59 -12.01)"/><path class="cls-3" d="M62.22,121.38a7.84,7.84,0,0,0-1.12-.08,2.27,2.27,0,0,0-2.31,1.19v7.6h-3.1V118.47h2.93l.09,1.39a2.86,2.86,0,0,1,2.59-1.6,3,3,0,0,1,1,.14Z" transform="translate(-8.59 -12.01)"/><path class="cls-3" d="M71.06,130.31a5.67,5.67,0,0,1-4.16-1.57,5.59,5.59,0,0,1-1.61-4.18v-.3a7,7,0,0,1,.68-3.13A5,5,0,0,1,67.88,119a5.4,5.4,0,0,1,2.84-.74,4.82,4.82,0,0,1,3.75,1.5A6.11,6.11,0,0,1,75.84,124v1.27h-7.4a2.87,2.87,0,0,0,.91,1.83,2.72,2.72,0,0,0,1.91.69,3.38,3.38,0,0,0,2.81-1.3l1.52,1.7a4.61,4.61,0,0,1-1.89,1.55A6.3,6.3,0,0,1,71.06,130.31Zm-.36-9.55a2,2,0,0,0-1.49.62,3.24,3.24,0,0,0-.74,1.8h4.32v-.25a2.31,2.31,0,0,0-.56-1.6A2,2,0,0,0,70.7,120.76Z" transform="translate(-8.59 -12.01)"/><path class="cls-3" d="M79.32,124.2a6.94,6.94,0,0,1,1.22-4.33,3.93,3.93,0,0,1,3.33-1.61,3.59,3.59,0,0,1,2.81,1.26v-5.93h3.11v16.5H87l-.15-1.23a3.66,3.66,0,0,1-3,1.45,3.94,3.94,0,0,1-3.29-1.62A7.2,7.2,0,0,1,79.32,124.2Zm3.1.23a4.56,4.56,0,0,0,.57,2.5,1.85,1.85,0,0,0,1.66.88,2.09,2.09,0,0,0,2-1.22V122a2.06,2.06,0,0,0-2-1.22C83.17,120.78,82.42,122,82.42,124.43Z" transform="translate(-8.59 -12.01)"/><path class="cls-3" d="M94.38,115.46a1.54,1.54,0,0,1,.46-1.15,1.78,1.78,0,0,1,1.28-.45,1.74,1.74,0,0,1,1.26.45,1.63,1.63,0,0,1,0,2.31,2,2,0,0,1-2.53,0A1.54,1.54,0,0,1,94.38,115.46Zm3.29,14.63H94.56V118.47h3.11Z" transform="translate(-8.59 -12.01)"/><path class="cls-3" d="M106.15,115.61v2.86h2v2.28h-2v5.8a1.39,1.39,0,0,0,.24.92,1.24,1.24,0,0,0,1,.28,5,5,0,0,0,.91-.07V130a6.25,6.25,0,0,1-1.88.28q-3.25,0-3.33-3.3v-6.26h-1.69v-2.28H103v-2.86Z" transform="translate(-8.59 -12.01)"/><path class="cls-3" d="M117.41,130.31a5.69,5.69,0,0,1-4.16-1.57,5.58,5.58,0,0,1-1.6-4.18v-.3a7,7,0,0,1,.67-3.13,5,5,0,0,1,1.92-2.13,5.36,5.36,0,0,1,2.83-.74,4.82,4.82,0,0,1,3.75,1.5,6.06,6.06,0,0,1,1.37,4.26v1.27h-7.4a2.92,2.92,0,0,0,.91,1.83,2.74,2.74,0,0,0,1.92.69,3.37,3.37,0,0,0,2.8-1.3l1.53,1.7a4.74,4.74,0,0,1-1.89,1.55A6.38,6.38,0,0,1,117.41,130.31Zm-.35-9.55a2,2,0,0,0-1.5.62,3.24,3.24,0,0,0-.73,1.8h4.31v-.25a2.26,2.26,0,0,0-.56-1.6A2,2,0,0,0,117.06,120.76Z" transform="translate(-8.59 -12.01)"/><path class="cls-3" d="M125.67,124.2a7,7,0,0,1,1.22-4.33,4,4,0,0,1,3.34-1.61,3.57,3.57,0,0,1,2.8,1.26v-5.93h3.12v16.5h-2.81l-.15-1.23a3.64,3.64,0,0,1-3,1.45,4,4,0,0,1-3.3-1.62A7.26,7.26,0,0,1,125.67,124.2Zm3.11.23a4.56,4.56,0,0,0,.57,2.5,1.84,1.84,0,0,0,1.65.88,2.08,2.08,0,0,0,2-1.22V122a2.06,2.06,0,0,0-2-1.22C129.52,120.78,128.78,122,128.78,124.43Z" transform="translate(-8.59 -12.01)"/><path class="cls-3" d="M150.31,113.23l1.46.85a5.74,5.74,0,0,0-1,3v1.8h-2.46v-1.62a4.82,4.82,0,0,1,.56-2.15A5.65,5.65,0,0,1,150.31,113.23Z" transform="translate(-8.59 -12.01)"/><path class="cls-3" d="M163.52,126.87h-5.65l-1.07,3.22h-3.43l5.82-15.64h3L168,130.09h-3.42Zm-4.78-2.61h3.91l-2-5.85Z" transform="translate(-8.59 -12.01)"/><path class="cls-3" d="M177.75,121.34h3.88v2.8h-3.88v4.39H174.8v-4.39h-3.89v-2.8h3.89v-4.2h2.95Z" transform="translate(-8.59 -12.01)"/><path class="cls-3" d="M186.59,119.25l-1.46-.84a5.8,5.8,0,0,0,1-3v-1.82h2.47v1.67a4.88,4.88,0,0,1-.54,2.09A5.57,5.57,0,0,1,186.59,119.25Z" transform="translate(-8.59 -12.01)"/><path class="cls-3" d="M213.21,128.12a5.6,5.6,0,0,1-2.46,1.61,10.17,10.17,0,0,1-3.53.58,7,7,0,0,1-3.56-.89,5.89,5.89,0,0,1-2.36-2.57,9.06,9.06,0,0,1-.86-4v-1.07a9.69,9.69,0,0,1,.79-4,5.81,5.81,0,0,1,2.28-2.62,7.51,7.51,0,0,1,7.84.41,5.76,5.76,0,0,1,1.86,3.87h-3.14a3.12,3.12,0,0,0-.95-2,3.08,3.08,0,0,0-2-.62,2.86,2.86,0,0,0-2.5,1.23,6.57,6.57,0,0,0-.87,3.68v1a6.12,6.12,0,0,0,.94,3.71,3.19,3.19,0,0,0,2.74,1.26A3.58,3.58,0,0,0,210,127v-2.7h-2.93v-2.37h6.16Z" transform="translate(-8.59 -12.01)"/><path class="cls-3" d="M224.34,121.38a7.81,7.81,0,0,0-1.11-.08,2.26,2.26,0,0,0-2.31,1.19v7.6h-3.11V118.47h2.94l.08,1.39a2.87,2.87,0,0,1,2.59-1.6,3.08,3.08,0,0,1,1,.14Z" transform="translate(-8.59 -12.01)"/><path class="cls-3" d="M234.45,130.09a3.37,3.37,0,0,1-.31-1,3.75,3.75,0,0,1-2.93,1.26,4.1,4.1,0,0,1-2.83-1,3.18,3.18,0,0,1-1.13-2.49,3.3,3.3,0,0,1,1.37-2.84,6.78,6.78,0,0,1,4-1H234v-.66a1.94,1.94,0,0,0-.41-1.29,1.65,1.65,0,0,0-1.31-.49,1.86,1.86,0,0,0-1.23.38,1.27,1.27,0,0,0-.44,1h-3.11a3.18,3.18,0,0,1,.62-1.87,4.23,4.23,0,0,1,1.77-1.35,6.48,6.48,0,0,1,2.55-.48,5.07,5.07,0,0,1,3.41,1.08,3.76,3.76,0,0,1,1.26,3v5a5.57,5.57,0,0,0,.47,2.5v.18Zm-2.57-2.16a2.73,2.73,0,0,0,1.27-.3,2.07,2.07,0,0,0,.86-.82v-2h-1.16c-1.55,0-2.38.54-2.48,1.61v.18a1.22,1.22,0,0,0,.41,1A1.57,1.57,0,0,0,231.88,127.93Z" transform="translate(-8.59 -12.01)"/><path class="cls-3" d="M241.23,124.2a6.94,6.94,0,0,1,1.22-4.33,3.93,3.93,0,0,1,3.33-1.61,3.55,3.55,0,0,1,2.8,1.26v-5.93h3.12v16.5h-2.8l-.15-1.23a3.66,3.66,0,0,1-3,1.45,3.93,3.93,0,0,1-3.29-1.62A7.2,7.2,0,0,1,241.23,124.2Zm3.1.23a4.56,4.56,0,0,0,.57,2.5,1.84,1.84,0,0,0,1.65.88,2.08,2.08,0,0,0,2-1.22V122a2,2,0,0,0-2-1.22C245.08,120.78,244.33,122,244.33,124.43Z" transform="translate(-8.59 -12.01)"/><path class="cls-3" d="M261.66,130.31a5.7,5.7,0,0,1-4.17-1.57,5.58,5.58,0,0,1-1.6-4.18v-.3a7,7,0,0,1,.67-3.13,5,5,0,0,1,1.92-2.13,5.36,5.36,0,0,1,2.83-.74,4.85,4.85,0,0,1,3.76,1.5,6.11,6.11,0,0,1,1.37,4.26v1.27H259a2.92,2.92,0,0,0,.91,1.83,2.76,2.76,0,0,0,1.92.69,3.35,3.35,0,0,0,2.8-1.3l1.53,1.7a4.74,4.74,0,0,1-1.89,1.55A6.36,6.36,0,0,1,261.66,130.31Zm-.36-9.55a2,2,0,0,0-1.5.62,3.24,3.24,0,0,0-.73,1.8h4.31v-.25a2.31,2.31,0,0,0-.55-1.6A2,2,0,0,0,261.3,120.76Z" transform="translate(-8.59 -12.01)"/><path class="cls-3" d="M288.55,124.39a7.1,7.1,0,0,1-1.19,4.36,4,4,0,0,1-3.33,1.56,3.62,3.62,0,0,1-3-1.45l-.14,1.23h-2.79v-16.5h3.1v5.92a3.53,3.53,0,0,1,2.83-1.25,4,4,0,0,1,3.33,1.56,7,7,0,0,1,1.21,4.4Zm-3.1-.23a4.64,4.64,0,0,0-.56-2.57,1.9,1.9,0,0,0-1.67-.81,2,2,0,0,0-2,1.21v4.59a2.08,2.08,0,0,0,2.06,1.23,1.92,1.92,0,0,0,2-1.49A7.61,7.61,0,0,0,285.45,124.16Z" transform="translate(-8.59 -12.01)"/><path class="cls-3" d="M296.88,125.7l2.15-7.23h3.33l-4.67,13.43-.26.61a3.54,3.54,0,0,1-3.44,2.28,4.7,4.7,0,0,1-1.37-.21v-2.35h.47a2.55,2.55,0,0,0,1.32-.27,1.77,1.77,0,0,0,.68-.89l.37-1-4.08-11.66h3.34Z" transform="translate(-8.59 -12.01)"/><path class="cls-3" d="M326.39,130.09h-3.22l-6.28-10.29v10.29h-3.22V114.45h3.22l6.29,10.32V114.45h3.21Z" transform="translate(-8.59 -12.01)"/><path class="cls-3" d="M340.43,126.87h-5.65l-1.08,3.22h-3.43l5.83-15.64h3l5.86,15.64h-3.43Zm-4.78-2.61h3.91l-2-5.85Z" transform="translate(-8.59 -12.01)"/><path class="cls-3" d="M357.43,126.87h-5.65l-1.08,3.22h-3.42l5.82-15.64h3l5.85,15.64h-3.43Zm-4.78-2.61h3.91l-2-5.85Z" transform="translate(-8.59 -12.01)"/><path class="cls-3" d="M377.65,124.88a5.53,5.53,0,0,1-1.86,4,6.53,6.53,0,0,1-4.43,1.45,5.88,5.88,0,0,1-4.73-2,8.3,8.3,0,0,1-1.73-5.56v-1a9.39,9.39,0,0,1,.8-4,6,6,0,0,1,2.27-2.63,7.09,7.09,0,0,1,7.79.53,6,6,0,0,1,1.92,4.07h-3.23a3.31,3.31,0,0,0-.84-2.2,3.14,3.14,0,0,0-2.21-.68A2.74,2.74,0,0,0,369,118a6.45,6.45,0,0,0-.82,3.58v1.18a6.86,6.86,0,0,0,.77,3.71,2.68,2.68,0,0,0,2.42,1.17,3.17,3.17,0,0,0,2.23-.69,3,3,0,0,0,.84-2.11Z" transform="translate(-8.59 -12.01)"/></svg>